<svg width="377" height="250" viewBox="0 0 377 250" fill="none" xmlns="http://www.w3.org/2000/svg">
<g clip-path="url(#clip0_535_668)">
<path d="M134.917 143.877C147.806 121.199 172.394 103.786 198.422 105.463C179.223 126.345 168.028 153.345 166.817 181.687C166.389 192.62 167.052 204.823 159.795 213.009C155.279 218.103 148.377 220.569 141.59 221.087C134.803 221.604 128.018 220.378 121.322 219.157L119.698 219.655C119.079 193.576 122.027 166.555 134.917 143.877Z" fill="#465773"/>
<path d="M198.461 106.009C179.214 115.277 162.802 130.754 152.727 149.629C150.549 153.71 148.694 158.04 147.885 162.617C147.076 167.197 147.641 171.556 149.205 175.905C150.635 179.882 152.558 183.784 152.996 188.038C153.458 192.523 151.808 196.716 148.838 200.044C145.205 204.116 140.325 206.64 135.467 208.941C130.073 211.497 124.431 214.066 120.61 218.835C120.147 219.413 119.278 218.661 119.74 218.084C126.387 209.786 137.764 208.226 145.654 201.541C149.335 198.422 152.099 194.174 151.924 189.197C151.772 184.845 149.792 180.82 148.31 176.806C146.753 172.592 145.977 168.354 146.535 163.861C147.106 159.265 148.796 154.854 150.86 150.735C155.515 141.447 161.886 132.919 169.185 125.547C177.573 117.074 187.349 110.098 198.089 104.921C198.754 104.601 199.122 105.691 198.461 106.009Z" fill="white"/>
<path d="M155.678 143.321C152.727 141.163 150.639 138.027 149.788 134.471C148.936 130.916 149.375 127.174 151.028 123.913C151.364 123.254 152.403 123.746 152.066 124.406C150.522 127.44 150.113 130.926 150.913 134.235C151.713 137.544 153.669 140.458 156.429 142.451C157.028 142.885 156.274 143.752 155.678 143.321Z" fill="white"/>
<path d="M148.215 173.985C155.608 172.904 162.323 169.076 167.021 163.264C167.485 162.688 168.355 163.44 167.891 164.015C162.992 170.054 155.995 174.024 148.299 175.131C147.565 175.236 147.485 174.089 148.215 173.985Z" fill="white"/>
<path d="M178.141 118.488C179.109 119.561 180.328 120.377 181.689 120.862C183.049 121.347 184.51 121.487 185.938 121.268C186.67 121.154 186.749 122.301 186.022 122.415C184.443 122.649 182.831 122.493 181.326 121.96C179.821 121.427 178.47 120.534 177.39 119.359C177.279 119.256 177.211 119.116 177.2 118.965C177.189 118.814 177.235 118.665 177.33 118.548C177.43 118.433 177.572 118.363 177.724 118.351C177.875 118.34 178.025 118.389 178.141 118.488Z" fill="white"/>
<path d="M250.211 177.005C249.756 177.089 249.301 177.173 248.841 177.267C242.73 178.433 236.723 180.093 230.88 182.232C230.426 182.39 229.968 182.558 229.519 182.729C215.497 188.032 202.582 195.893 191.429 205.912C186.995 209.902 182.871 214.225 179.093 218.841C173.875 225.217 168.725 232.546 161.906 236.703C161.2 237.145 160.466 237.542 159.711 237.893L120.432 221.599C120.361 221.517 120.286 221.444 120.215 221.362L118.617 220.783C118.795 220.531 118.986 220.274 119.164 220.022C119.267 219.876 119.378 219.733 119.481 219.586C119.552 219.49 119.624 219.394 119.683 219.302C119.707 219.27 119.731 219.238 119.751 219.215C119.809 219.124 119.874 219.045 119.929 218.963C120.988 217.522 122.06 216.087 123.144 214.656C123.147 214.647 123.147 214.647 123.16 214.641C131.444 203.76 140.709 193.474 151.24 184.922C151.557 184.664 151.878 184.398 152.213 184.148C156.981 180.32 162.054 176.887 167.382 173.885C170.305 172.251 173.308 170.766 176.381 169.435C184.327 166.012 192.762 163.861 201.376 163.059C218.549 161.464 236.041 165.38 249.212 176.17C249.549 176.447 249.878 176.719 250.211 177.005Z" fill="#465773"/>
<path d="M249.916 177.467C228.969 173.276 206.548 175.751 187.141 184.756C182.945 186.702 178.859 189.042 175.457 192.21C172.054 195.379 169.881 199.2 168.512 203.615C167.26 207.651 166.446 211.924 164.235 215.585C161.904 219.444 158.063 221.799 153.688 222.668C148.335 223.731 142.92 222.807 137.656 221.72C131.811 220.512 125.759 219.165 119.838 220.673C119.12 220.856 118.879 219.732 119.595 219.549C129.897 216.926 139.921 222.532 150.244 221.945C155.061 221.671 159.825 219.944 162.682 215.865C165.18 212.298 166.022 207.892 167.255 203.795C168.549 199.493 170.48 195.642 173.631 192.391C176.853 189.065 180.857 186.56 184.985 184.514C194.294 179.901 204.514 176.929 214.779 175.438C226.577 173.723 238.582 174.04 250.273 176.374C250.997 176.519 250.635 177.611 249.916 177.467Z" fill="white"/>
<path d="M193.295 181.496C192.238 177.996 192.459 174.234 193.919 170.883C195.379 167.531 197.983 164.808 201.265 163.199C201.931 162.876 202.464 163.894 201.798 164.218C198.739 165.711 196.313 168.248 194.96 171.372C193.607 174.495 193.415 178 194.418 181.253C194.636 181.96 193.511 182.199 193.295 181.496Z" fill="white"/>
<path d="M168.877 201.485C175.431 205.074 183.097 206.061 190.346 204.249C191.064 204.069 191.306 205.193 190.589 205.373C183.041 207.245 175.066 206.201 168.254 202.451C167.605 202.093 168.231 201.129 168.877 201.485Z" fill="white"/>
<path d="M226.179 175.195C226.306 176.634 226.788 178.019 227.583 179.226C228.377 180.433 229.459 181.424 230.731 182.109C231.384 182.459 230.757 183.423 230.108 183.075C228.706 182.312 227.513 181.216 226.632 179.885C225.751 178.553 225.21 177.026 225.055 175.437C225.028 175.289 225.059 175.135 225.14 175.009C225.222 174.882 225.349 174.791 225.496 174.754C225.645 174.723 225.8 174.751 225.928 174.834C226.056 174.916 226.146 175.046 226.179 175.195Z" fill="white"/>
<path d="M175.387 203.888C169.886 177.286 163.01 168.417 163.01 168.417L160.383 166.38L157.224 163.925L157.239 163.61L156.49 163.355L156.314 163.218L156.025 162.997L155.979 163.047L155.881 163.148L141.586 158.288L123.451 152.127L115.053 141.21C113.685 139.432 111.924 137.995 109.908 137.011C107.892 136.028 105.676 135.525 103.433 135.541L76.6128 135.74C72.9864 135.767 69.5012 137.149 66.8424 139.616L49.2139 155.97L21.7453 169.091L21.6989 169.045L21.4105 169.251L17.1663 171.28L17.3415 172.192L14.7146 174.088C14.7146 174.088 7.83847 182.341 2.33753 207.093C0.938152 213.392 0.249327 226.902 0.000698699 243.551C-0.0117899 244.393 0.14325 245.229 0.4568 246.011C0.77035 246.793 1.23616 247.504 1.82713 248.104C2.41811 248.705 3.12247 249.181 3.89926 249.507C4.67604 249.832 5.50975 250 6.35192 250H153.067L171.379 250C172.221 249.999 173.054 249.832 173.83 249.507C174.606 249.182 175.31 248.706 175.901 248.106C176.492 247.507 176.958 246.796 177.272 246.015C177.586 245.235 177.742 244.399 177.73 243.557C177.487 225.441 176.799 210.718 175.387 203.888Z" fill="#0378BD"/>
<path d="M194.211 23.1992C188.503 23.1992 183.029 25.4671 178.992 29.5039C174.956 33.5408 172.689 39.0159 172.689 44.7248C172.689 50.4338 174.956 55.9089 178.992 59.9458C183.029 63.9826 188.503 66.2505 194.211 66.2505H354.604C360.312 66.2505 365.786 63.9826 369.822 59.9458C373.859 55.9089 376.126 50.4338 376.126 44.7248C376.126 39.0159 373.859 33.5408 369.822 29.5039C365.786 25.4671 360.312 23.1992 354.604 23.1992H194.211Z" fill="#465773"/>
<path d="M194.211 27.5555C189.658 27.5555 185.292 29.3644 182.072 32.5843C178.853 35.8042 177.044 40.1712 177.044 44.7248C177.044 49.2784 178.853 53.6454 182.072 56.8653C185.292 60.0851 189.658 61.894 194.211 61.894H354.604C359.157 61.894 363.523 60.0851 366.742 56.8653C369.962 53.6454 371.77 49.2784 371.77 44.7248C371.77 40.1712 369.962 35.8042 366.742 32.5843C363.523 29.3644 359.157 27.5555 354.604 27.5555H194.211Z" fill="white"/>
<path d="M94.2347 125.464C113.64 125.464 129.372 109.73 129.372 90.3219C129.372 70.9132 113.64 55.1794 94.2347 55.1794C74.8291 55.1794 59.0977 70.9132 59.0977 90.3219C59.0977 109.73 74.8291 125.464 94.2347 125.464Z" fill="#9E616A"/>
<path d="M85.246 123.743C85.0958 123.413 84.9462 123.081 84.7969 122.748C84.8544 122.75 84.9114 122.758 84.9689 122.76L85.246 123.743Z" fill="#2F2E41"/>
<path d="M58.1207 56.7774C59.8978 55.3595 61.9749 54.0549 64.247 54.1283C66.5191 54.2015 68.8232 56.2539 68.3524 58.4783C72.5259 51.0878 79.1687 45.4037 87.1149 42.4236C95.0611 39.4435 103.803 39.358 111.806 42.1819C117.453 44.1746 122.991 48.1611 124.288 54.0081C124.621 55.509 124.693 57.1548 125.63 58.3736C126.811 59.9103 129.072 60.2579 130.933 59.7173C130.951 59.7119 130.97 59.7064 130.989 59.7009C131.303 59.5935 131.642 59.5829 131.963 59.6706C132.283 59.7582 132.57 59.94 132.786 60.1925C133.002 60.4449 133.138 60.7564 133.175 61.0867C133.212 61.4169 133.149 61.7507 132.995 62.0448L131.397 65.0253C133.411 65.4743 135.504 65.4298 137.497 64.8955C137.828 64.8086 138.178 64.8264 138.499 64.9463C138.819 65.0662 139.095 65.2823 139.288 65.5651C139.481 65.8479 139.582 66.1835 139.576 66.5258C139.571 66.8682 139.46 67.2005 139.258 67.4772C133.99 74.712 125.187 79.3838 116.205 79.3289C109.821 79.2899 103.371 77.0893 97.1574 78.5577C94.7537 79.1257 92.5077 80.2248 90.5841 81.7742C88.6605 83.3237 87.1082 85.2842 86.0409 87.512C84.9737 89.7397 84.4188 92.1782 84.4167 94.6484C84.4147 97.1187 84.9656 99.558 86.0291 101.788C84.1204 99.6994 80.4305 100.194 78.478 102.241C76.5256 104.288 76.0201 107.344 76.2169 110.167C76.5177 114.484 78.2088 118.551 79.9915 122.51C65.0446 122.039 50.9073 111.553 46.1487 97.3694C41.3701 83.1266 46.3782 66.1462 58.1207 56.7774Z" fill="black"/>
<path opacity="0.2" d="M34.584 195.857L44.4391 249.485L50.3525 250L34.584 195.857Z" fill="black"/>
<path opacity="0.2" d="M143.141 191.812L133.285 249.446L127.372 250L143.141 191.812Z" fill="black"/>
<path d="M66.5262 38.729C64.6366 39.5182 62.6649 38.6533 61.838 36.6728C60.9985 34.6619 61.7826 32.6206 63.7024 31.8188C65.6225 31.0169 67.5591 31.8839 68.4122 33.9272C69.2525 35.9398 68.4769 37.9144 66.5262 38.729ZM62.9065 27.8608L61.4041 28.4882C61.0288 28.6431 60.609 28.6515 60.2278 28.5116C59.8466 28.3718 59.5318 28.094 59.3456 27.7331L59.2713 27.5877C57.6547 24.6718 57.4695 21.1279 58.724 17.06C59.8861 13.4109 60.3688 10.8445 59.3981 8.51946C58.2758 5.8313 55.8792 4.98923 52.8231 6.20906C51.6378 6.70408 51.2606 6.69619 50.3278 7.62167C50.1249 7.82543 49.8831 7.98624 49.6167 8.09451C49.3503 8.20277 49.0648 8.25627 48.7773 8.25183C48.4994 8.24856 48.225 8.18934 47.9704 8.07771C47.7159 7.96608 47.4864 7.80431 47.2957 7.60207C46.9283 7.21233 46.7225 6.69766 46.7198 6.16201C46.717 5.62637 46.9177 5.10965 47.2811 4.71621C48.849 3.07472 50.74 1.77609 52.8349 0.902268C59.4013 -1.84002 62.7068 2.20858 64.2194 5.83169C65.699 9.37551 64.8667 12.6636 63.5295 16.922C62.4088 20.4604 62.4741 23.0824 63.7471 25.6894C63.839 25.8865 63.8901 26.1001 63.8974 26.3175C63.9047 26.5348 63.868 26.7514 63.7895 26.9542C63.711 27.157 63.5923 27.3419 63.4406 27.4977C63.2888 27.6534 63.1072 27.777 62.9065 27.8608Z" fill="#0378BD"/>
<path d="M229.64 54.9911H197.728C197.626 54.9917 197.526 54.9724 197.432 54.934C197.338 54.8957 197.253 54.8392 197.181 54.7677C197.109 54.6963 197.052 54.6113 197.013 54.5177C196.974 54.4241 196.954 54.3237 196.954 54.2223C196.954 54.1209 196.974 54.0205 197.013 53.9269C197.052 53.8333 197.109 53.7483 197.181 53.6768C197.253 53.6054 197.338 53.5488 197.432 53.5105C197.526 53.4722 197.626 53.4528 197.728 53.4535H229.64C229.843 53.4549 230.037 53.5365 230.18 53.6805C230.323 53.8245 230.403 54.0193 230.403 54.2223C230.403 54.4253 230.323 54.62 230.18 54.764C230.037 54.9081 229.843 54.9897 229.64 54.9911Z" fill="#01589B"/>
<path d="M270.122 55.2474H238.21C238.109 55.2481 238.008 55.2287 237.914 55.1904C237.821 55.1521 237.735 55.0955 237.663 55.0241C237.591 54.9526 237.534 54.8677 237.495 54.774C237.456 54.6804 237.436 54.58 237.436 54.4786C237.436 54.3772 237.456 54.2768 237.495 54.1832C237.534 54.0896 237.591 54.0046 237.663 53.9332C237.735 53.8617 237.821 53.8052 237.914 53.7669C238.008 53.7285 238.109 53.7092 238.21 53.7099H270.122C270.224 53.7092 270.324 53.7285 270.418 53.7669C270.512 53.8052 270.597 53.8617 270.669 53.9332C270.741 54.0046 270.798 54.0896 270.837 54.1832C270.876 54.2768 270.896 54.3772 270.896 54.4786C270.896 54.58 270.876 54.6804 270.837 54.774C270.798 54.8677 270.741 54.9526 270.669 55.0241C270.597 55.0955 270.512 55.1521 270.418 55.1904C270.324 55.2287 270.224 55.2481 270.122 55.2474Z" fill="#01589B"/>
<path d="M310.605 55.5031H278.693C278.49 55.5018 278.296 55.4201 278.152 55.2761C278.009 55.1321 277.929 54.9373 277.929 54.7344C277.929 54.5314 278.009 54.3366 278.152 54.1926C278.296 54.0486 278.49 53.967 278.693 53.9656H310.605C310.706 53.9649 310.807 53.9843 310.901 54.0226C310.994 54.0609 311.08 54.1174 311.152 54.1889C311.224 54.2604 311.281 54.3453 311.32 54.439C311.359 54.5326 311.379 54.633 311.379 54.7344C311.379 54.8358 311.359 54.9362 311.32 55.0298C311.281 55.1234 311.224 55.2084 311.152 55.2798C311.08 55.3513 310.994 55.4078 310.901 55.4461C310.807 55.4845 310.706 55.5038 310.605 55.5031Z" fill="#01589B"/>
<path d="M351.087 55.7598H319.175C318.972 55.7585 318.778 55.6768 318.635 55.5328C318.492 55.3888 318.412 55.194 318.412 54.9911C318.412 54.7881 318.492 54.5933 318.635 54.4493C318.778 54.3053 318.972 54.2237 319.175 54.2223H351.087C351.29 54.2237 351.484 54.3053 351.627 54.4493C351.77 54.5933 351.851 54.7881 351.851 54.9911C351.851 55.194 351.77 55.3888 351.627 55.5328C351.484 55.6768 351.29 55.7585 351.087 55.7598Z" fill="#01589B"/>
<path d="M213.613 47.916C216.889 47.916 219.545 45.2602 219.545 41.984C219.545 38.7079 216.889 36.052 213.613 36.052C210.338 36.052 207.682 38.7079 207.682 41.984C207.682 45.2602 210.338 47.916 213.613 47.916Z" fill="#0378BD"/>
<path d="M254.341 47.916C257.616 47.916 260.272 45.2602 260.272 41.984C260.272 38.7079 257.616 36.052 254.341 36.052C251.065 36.052 248.409 38.7079 248.409 41.984C248.409 45.2602 251.065 47.916 254.341 47.916Z" fill="#0378BD"/>
<path d="M295.067 47.916C298.343 47.916 300.998 45.2602 300.998 41.984C300.998 38.7079 298.343 36.052 295.067 36.052C291.792 36.052 289.136 38.7079 289.136 41.984C289.136 45.2602 291.792 47.916 295.067 47.916Z" fill="#0378BD"/>
<path d="M335.794 47.916C339.07 47.916 341.726 45.2602 341.726 41.984C341.726 38.7079 339.07 36.052 335.794 36.052C332.519 36.052 329.863 38.7079 329.863 41.984C329.863 45.2602 332.519 47.916 335.794 47.916Z" fill="#0378BD"/>
</g>
<defs>
<clipPath id="clip0_535_668">
<rect width="376.126" height="250" fill="white"/>
</clipPath>
</defs>
</svg>
