<svg width="433" height="291" viewBox="0 0 433 291" fill="none" xmlns="http://www.w3.org/2000/svg">
<path d="M89.8907 191.409C70.314 174.767 62.0457 157.406 66.6083 142.523C72.4636 123.424 98.4756 110.218 137.975 106.293L138.121 107.388C99.1714 111.259 73.5562 124.168 67.8427 142.805C63.4024 157.289 71.5506 174.271 90.7866 190.624L89.8907 191.409Z" fill="#01589B"/>
<path d="M278.772 250.483C254.339 250.483 227.789 247.348 201.416 241.319C168.803 233.863 138.901 222.61 114.941 208.774L115.651 207.858C139.495 221.626 169.265 232.829 201.743 240.253C231.093 246.963 260.663 250.072 287.245 249.252L287.291 250.353C284.484 250.44 281.644 250.484 278.772 250.483Z" fill="#01589B"/>
<path d="M334.824 243.55L334.415 242.506C356.267 236.126 369.935 225.848 373.94 212.783C379.032 196.175 367.97 176.901 342.793 158.514C317.487 140.033 280.996 124.698 240.04 115.335L240.367 114.269C281.502 123.673 318.171 139.087 343.617 157.672C369.192 176.35 380.4 196.022 375.175 213.065C371.054 226.505 357.101 237.046 334.824 243.55Z" fill="#01589B"/>
<path d="M134.173 250.944C86.1642 232.557 49.1695 208.702 30.0046 183.773L31.0682 183.163C50.1006 207.92 86.9011 231.633 134.691 249.936L134.173 250.944Z" fill="#01589B"/>
<path d="M302.97 282.798C298.018 282.798 292.981 282.703 287.86 282.512L287.915 281.41C326.132 282.839 359.852 278.89 385.435 269.987L385.912 271.01C363.595 278.775 335.151 282.798 302.97 282.798Z" fill="#01589B"/>
<path d="M275.114 107.281C267.179 105.051 259.017 102.973 250.855 101.107C203.886 90.3698 157.715 86.5574 117.332 90.0845L117.203 88.9873C157.737 85.4487 204.066 89.2702 251.182 100.041C259.367 101.913 267.552 103.996 275.509 106.233L275.114 107.281Z" fill="#01589B"/>
<path d="M59.886 193.063C40.3094 176.421 32.0411 159.06 36.6037 144.177C42.459 125.078 68.471 111.872 107.97 107.947L108.116 109.042C69.1667 112.913 43.5515 125.822 37.8381 144.459C33.3977 158.943 41.5459 175.925 60.7819 192.278L59.886 193.063Z" fill="#01589B"/>
<path d="M248.768 252.137C224.335 252.137 197.784 249.002 171.412 242.973C138.799 235.517 108.897 224.263 84.9373 210.428L85.6467 209.512C109.491 223.28 139.261 234.482 171.739 241.907C201.089 248.617 230.659 251.726 257.241 250.905L257.287 252.007C254.48 252.094 251.64 252.138 248.768 252.137Z" fill="#01589B"/>
<path d="M304.82 245.204L304.411 244.159C326.263 237.779 339.93 227.502 343.936 214.437C349.027 197.828 337.966 178.555 312.789 160.168C287.483 141.687 250.992 126.352 210.035 116.989L210.362 115.923C251.497 125.327 288.166 140.741 313.613 159.326C339.188 178.004 350.395 197.676 345.17 214.719C341.05 228.159 327.097 238.7 304.82 245.204Z" fill="#01589B"/>
<path d="M104.169 252.598C56.1596 234.211 19.1649 210.356 0 185.427L1.06358 184.817C20.096 209.574 56.8965 233.287 104.686 251.59L104.169 252.598Z" fill="#01589B"/>
<path d="M272.965 284.452C268.013 284.452 262.977 284.357 257.856 284.166L257.911 283.064C296.127 284.493 329.847 280.544 355.43 271.641L355.908 272.664C333.591 280.429 305.146 284.452 272.965 284.452Z" fill="#01589B"/>
<path d="M245.11 108.935C237.175 106.704 229.013 104.627 220.851 102.761C173.882 92.0235 127.711 88.2111 87.3274 91.7382L87.199 90.641C127.733 87.1024 174.062 90.9239 221.177 101.695C229.362 103.566 237.547 105.65 245.505 107.887L245.11 108.935Z" fill="#01589B"/>
<path d="M21.7622 163.532C30.9374 154.649 45.5733 149.235 58.8367 152.476C46.6007 159.953 37.8218 170.927 34.0535 183.456C32.6205 188.292 31.6098 193.8 26.952 196.757C24.0538 198.597 20.2137 199.037 16.6495 198.618C13.0852 198.199 9.71504 197.002 6.39036 195.816L5.49573 195.883C8.06788 184.189 12.587 172.415 21.7622 163.532Z" fill="#01589B"/>
<path d="M58.7962 152.723C47.707 155.041 37.7458 160.318 30.3274 167.804C28.6972 169.391 27.3669 171.19 26.3855 173.135C25.5004 175.056 25.2271 177.147 25.5941 179.19C25.892 181.101 26.4529 183.026 26.2077 184.966C26.0651 185.957 25.6814 186.912 25.0817 187.766C24.4821 188.621 23.68 189.356 22.7281 189.924C20.399 191.393 17.5977 192.051 14.8323 192.613C11.7619 193.236 8.5612 193.842 6.05831 195.604C5.75505 195.818 5.38915 195.399 5.69195 195.186C10.0466 192.12 16.0985 192.514 20.9164 190.287C23.1646 189.248 25.0637 187.617 25.5255 185.38C25.9293 183.424 25.3527 181.438 25.0318 179.506C24.6399 177.517 24.8179 175.476 25.5501 173.56C26.4137 171.579 27.6616 169.739 29.2401 168.119C32.7267 164.422 36.8645 161.222 41.5021 158.636C46.776 155.659 52.6008 153.483 58.7245 152.202C59.1035 152.123 59.1728 152.644 58.7962 152.723Z" fill="white"/>
<path d="M32.5517 165.272C31.2663 164.027 30.5353 162.428 30.4894 160.76C30.4434 159.092 31.0854 157.465 32.3008 156.168C32.5478 155.906 33.0302 156.225 32.7829 156.487C31.6486 157.693 31.0507 159.209 31.0972 160.762C31.1436 162.315 31.8314 163.802 33.0364 164.956C33.2979 165.207 32.8117 165.522 32.5517 165.272Z" fill="white"/>
<path d="M25.2953 178.238C29.2357 178.464 33.1299 177.399 36.2015 175.256C36.5056 175.043 36.8716 175.462 36.5679 175.674C33.3667 177.9 29.3115 179.001 25.2116 178.758C24.8209 178.734 24.9066 178.215 25.2953 178.238Z" fill="white"/>
<path d="M46.9124 156.344C47.2935 156.916 47.833 157.396 48.4824 157.743C49.1317 158.09 49.8707 158.292 50.6329 158.331C51.0238 158.35 50.9376 158.87 50.5492 158.851C49.7074 158.804 48.8916 158.58 48.1732 158.198C47.4547 157.817 46.8555 157.289 46.4278 156.661C46.3818 156.605 46.3622 156.535 46.3732 156.467C46.3842 156.399 46.4249 156.337 46.4869 156.293C46.5514 156.252 46.6322 156.234 46.7119 156.243C46.7915 156.253 46.8636 156.289 46.9124 156.344Z" fill="white"/>
<path d="M77.6645 189.353C77.42 189.347 77.1755 189.341 76.9279 189.339C73.6406 189.274 70.3525 189.439 67.0962 189.834C66.8439 189.861 66.5887 189.892 66.3378 189.925C58.5044 190.949 50.9591 193.219 44.0854 196.621C41.3517 197.976 38.7413 199.51 36.277 201.208C32.8739 203.553 29.4 206.329 25.4158 207.531C25.0017 207.66 24.5788 207.767 24.1494 207.852L5.65972 196.82C5.63227 196.777 5.60172 196.737 5.57406 196.694L4.8125 196.282C4.93251 196.187 5.05936 196.091 5.17937 195.995C5.24872 195.94 5.32221 195.887 5.39154 195.831C5.43908 195.795 5.48684 195.759 5.52734 195.724C5.54312 195.712 5.55909 195.7 5.57197 195.691C5.61247 195.656 5.65439 195.628 5.69198 195.596C6.39927 195.055 7.1122 194.517 7.83077 193.982C7.83369 193.979 7.83369 193.979 7.84073 193.977C13.3279 189.916 19.2559 186.214 25.6461 183.407C25.8384 183.323 26.0334 183.235 26.2342 183.155C29.1227 181.904 32.1249 180.858 35.2106 180.029C36.902 179.58 38.6186 179.205 40.3539 178.906C44.8394 178.139 49.4365 177.987 53.9767 178.455C63.0273 179.388 71.6317 182.81 77.2412 188.885C77.3846 189.041 77.524 189.194 77.6645 189.353Z" fill="#01589B"/>
<path d="M77.4606 189.531C66.99 185.617 55.3574 184.651 44.2151 186.771C41.807 187.191 39.4906 187.936 37.3511 188.978C35.305 190.052 33.6291 191.579 32.4976 193.401C31.4031 195.082 30.509 196.91 28.9604 198.332C28.1552 199.05 27.1835 199.612 26.1089 199.982C25.0344 200.353 23.8813 200.523 22.7252 200.482C19.8415 200.444 17.1458 199.513 14.5462 198.524C11.6598 197.425 8.68196 196.245 5.45501 196.35C5.06402 196.363 5.06388 195.838 5.45428 195.826C11.0686 195.642 15.6263 199.103 21.0257 199.83C23.5452 200.169 26.1983 199.854 28.1268 198.308C29.8131 196.956 30.7371 195.071 31.8283 193.361C32.9019 191.57 34.4671 190.032 36.3873 188.884C38.4584 187.75 40.7378 186.93 43.1277 186.457C48.4886 185.318 54.0235 184.915 59.5295 185.261C65.8161 185.626 71.9841 186.917 77.7666 189.078C78.1244 189.212 77.8161 189.664 77.4606 189.531Z" fill="white"/>
<path d="M47.7565 185.906C47.5984 184.243 48.1298 182.586 49.2559 181.231C50.3819 179.875 52.0293 178.91 53.9038 178.506C54.2834 178.426 54.4461 178.931 54.066 179.012C52.3197 179.385 50.7852 180.285 49.7396 181.549C48.694 182.813 48.2061 184.358 48.364 185.905C48.3978 186.242 47.7901 186.24 47.7565 185.906Z" fill="white"/>
<path d="M32.9227 192.486C35.9113 194.715 39.763 195.889 43.7098 195.775C44.1009 195.763 44.1011 196.288 43.7106 196.3C39.6032 196.412 35.5977 195.183 32.4936 192.857C32.1979 192.635 32.6286 192.265 32.9227 192.486Z" fill="white"/>
<path d="M65.4474 186.244C65.3533 186.898 65.4489 187.563 65.7256 188.177C66.0023 188.792 66.4514 189.337 67.0326 189.765C67.3314 189.983 66.9003 190.353 66.6035 190.136C65.9639 189.661 65.4688 189.058 65.1613 188.38C64.8539 187.701 64.7435 186.968 64.8398 186.245C64.8423 186.176 64.875 186.11 64.9314 186.062C64.9877 186.013 65.0634 185.984 65.1432 185.982C65.2236 185.982 65.3007 186.01 65.3577 186.059C65.4146 186.108 65.4469 186.175 65.4474 186.244Z" fill="white"/>
<path d="M381.278 236.354C376.094 225.324 364.417 215.977 350.663 215.18C359.277 225.774 363.274 238.657 361.947 251.551C361.414 256.522 360.222 262.003 363.458 266.14C365.471 268.714 368.917 270.243 372.437 270.882C375.957 271.522 379.597 271.373 383.19 271.221L384.007 271.544C386.136 259.783 386.462 247.383 381.278 236.354Z" fill="#01589B"/>
<path d="M350.605 215.425C360.146 220.827 367.474 228.688 371.548 237.891C372.465 239.859 373.018 241.94 373.186 244.056C373.271 246.122 372.715 248.171 371.574 249.988C370.55 251.702 369.272 253.352 368.748 255.25C368.497 256.226 368.487 257.236 368.719 258.215C368.951 259.193 369.42 260.119 370.096 260.93C371.718 262.989 374.1 264.423 376.486 265.754C379.135 267.233 381.913 268.732 383.585 271.118C383.787 271.407 384.295 271.119 384.093 270.83C381.185 266.679 375.332 265.293 371.661 261.798C369.948 260.167 368.794 258.08 369.229 255.839C369.611 253.879 370.926 252.176 371.981 250.449C373.124 248.69 373.751 246.716 373.807 244.699C373.764 242.582 373.306 240.487 372.449 238.503C370.604 234.01 367.953 229.795 364.591 226.013C360.783 221.679 356.144 217.939 350.875 214.955C350.549 214.77 350.281 215.242 350.605 215.425Z" fill="white"/>
<path d="M370.438 234.861C372.134 234.061 373.445 232.767 374.137 231.21C374.829 229.652 374.858 227.933 374.218 226.359C374.087 226.041 373.509 226.202 373.64 226.52C374.239 227.985 374.212 229.586 373.564 231.035C372.916 232.485 371.689 233.686 370.105 234.422C369.761 234.583 370.096 235.021 370.438 234.861Z" fill="white"/>
<path d="M372.226 249.179C368.427 248.248 365.174 246.115 363.115 243.205C362.912 242.916 362.404 243.204 362.607 243.492C364.756 246.517 368.147 248.731 372.103 249.692C372.48 249.784 372.602 249.27 372.226 249.179Z" fill="white"/>
<path d="M360.388 222.285C359.806 222.712 359.111 223.008 358.365 223.146C357.618 223.285 356.843 223.26 356.11 223.076C355.735 222.981 355.614 223.495 355.987 223.59C356.798 223.79 357.653 223.816 358.479 223.665C359.304 223.514 360.074 223.191 360.721 222.723C360.786 222.684 360.832 222.624 360.848 222.557C360.864 222.489 360.85 222.419 360.808 222.36C360.764 222.302 360.695 222.262 360.616 222.248C360.537 222.234 360.455 222.247 360.388 222.285Z" fill="white"/>
<path d="M318.578 244.448C318.81 244.513 319.043 244.578 319.277 244.648C322.398 245.541 325.431 246.651 328.344 247.968C328.571 248.067 328.799 248.17 329.023 248.274C336.002 251.511 342.225 255.839 347.375 261.038C349.422 263.109 351.283 265.311 352.943 267.625C355.236 270.821 357.427 274.444 360.712 276.732C361.051 276.975 361.408 277.198 361.78 277.402L383.487 272.379C383.53 272.346 383.574 272.317 383.617 272.285L384.495 272.118C384.419 271.994 384.337 271.866 384.261 271.741C384.217 271.669 384.168 271.598 384.125 271.525C384.094 271.477 384.063 271.43 384.039 271.385C384.028 271.369 384.018 271.353 384.009 271.341C383.985 271.296 383.956 271.257 383.933 271.217C383.478 270.502 383.016 269.788 382.547 269.076C382.546 269.072 382.546 269.072 382.54 269.068C378.952 263.651 374.81 258.444 369.884 253.945C369.736 253.81 369.586 253.67 369.428 253.537C367.195 251.52 364.774 249.664 362.191 247.988C360.773 247.074 359.302 246.222 357.784 245.437C353.858 243.413 349.587 241.936 345.129 241.058C336.242 239.31 326.806 240.036 319.158 244.13C318.963 244.235 318.772 244.339 318.578 244.448Z" fill="#01589B"/>
<path d="M318.7 244.674C330.085 244.027 341.417 246.494 351.086 251.724C353.191 252.818 355.082 254.192 356.692 255.795C358.201 257.4 359.185 259.325 359.541 261.369C359.918 263.27 360.048 265.251 360.954 267.04C361.433 267.949 362.129 268.761 362.997 269.422C363.865 270.083 364.884 270.578 365.989 270.874C368.72 271.675 371.621 271.581 374.455 271.404C377.601 271.207 380.865 270.96 383.863 271.996C384.226 272.121 384.43 271.627 384.068 271.502C378.852 269.699 373.212 271.636 367.844 270.753C365.339 270.342 362.962 269.275 361.748 267.259C360.686 265.497 360.549 263.453 360.187 261.526C359.873 259.527 358.997 257.625 357.636 255.986C356.126 254.317 354.299 252.883 352.232 251.744C347.626 249.116 342.571 247.129 337.25 245.857C331.187 244.376 324.876 243.802 318.589 244.159C318.199 244.181 318.314 244.696 318.7 244.674Z" fill="white"/>
<path d="M348.087 249.882C348.883 248.362 349.028 246.647 348.495 245.043C347.962 243.44 346.786 242.052 345.178 241.128C344.851 240.942 344.501 241.371 344.828 241.557C346.328 242.415 347.423 243.708 347.915 245.202C348.408 246.696 348.266 248.293 347.515 249.705C347.352 250.012 347.925 250.187 348.087 249.882Z" fill="white"/>
<path d="M359.497 260.384C355.815 261.616 351.73 261.604 348.057 260.351C347.694 260.226 347.489 260.72 347.852 260.845C351.677 262.143 355.928 262.147 359.757 260.858C360.122 260.735 359.86 260.261 359.497 260.384Z" fill="white"/>
<path d="M331.294 245.065C331.128 245.709 330.779 246.307 330.28 246.805C329.78 247.304 329.145 247.687 328.431 247.921C328.064 248.04 328.326 248.514 328.69 248.396C329.478 248.134 330.179 247.71 330.732 247.16C331.286 246.61 331.675 245.952 331.866 245.242C331.89 245.177 331.885 245.106 331.851 245.043C331.817 244.981 331.757 244.932 331.682 244.907C331.607 244.884 331.523 244.888 331.45 244.917C331.378 244.947 331.322 245 331.294 245.065Z" fill="white"/>
<path d="M280.706 273.911C283.527 273.911 285.814 271.936 285.814 269.501C285.814 267.065 283.527 265.09 280.706 265.09C277.886 265.09 275.599 267.065 275.599 269.501C275.599 271.936 277.886 273.911 280.706 273.911Z" fill="#01589B"/>
<path d="M298.797 198.795C301.618 198.795 303.904 196.82 303.904 194.385C303.904 191.949 301.618 189.974 298.797 189.974C295.976 189.974 293.69 191.949 293.69 194.385C293.69 196.82 295.976 198.795 298.797 198.795Z" fill="#01589B"/>
<path d="M203.765 76.4639C206.586 76.4639 208.872 74.4894 208.872 72.0537C208.872 69.618 206.586 67.6434 203.765 67.6434C200.945 67.6434 198.658 69.618 198.658 72.0537C198.658 74.4894 200.945 76.4639 203.765 76.4639Z" fill="#01589B"/>
<path d="M96.7421 241.229C96.7421 242.352 96.7849 243.474 96.8759 244.588C96.9722 245.918 97.138 247.24 97.3627 248.552C98.1179 252.97 99.5612 257.279 101.653 261.363C101.76 261.566 101.867 261.77 101.974 261.973L102.135 262.278C102.188 262.379 102.247 262.481 102.301 262.578C102.376 262.712 102.445 262.841 102.52 262.971C102.611 263.132 102.702 263.294 102.798 263.456C102.809 263.474 102.82 263.497 102.836 263.52C102.916 263.659 102.991 263.793 103.077 263.932C103.092 263.962 103.11 263.991 103.13 264.019C103.221 264.176 103.317 264.338 103.414 264.495C103.521 264.662 103.622 264.833 103.729 264.999C103.986 265.41 104.254 265.817 104.526 266.223C104.607 266.343 104.687 266.463 104.773 266.583C104.847 266.694 104.922 266.805 105.003 266.916C105.056 266.99 105.11 267.069 105.163 267.142C105.249 267.267 105.334 267.387 105.425 267.512C105.623 267.785 105.826 268.057 106.024 268.33H106.03C106.121 268.455 106.217 268.579 106.313 268.699V268.704C106.597 269.074 106.891 269.443 107.185 269.808L107.187 269.809L107.189 269.81L107.19 269.811L107.191 269.813C107.426 270.108 107.672 270.395 107.913 270.681V270.686C108.073 270.866 108.229 271.051 108.389 271.231C108.518 271.379 108.651 271.531 108.785 271.679C108.812 271.712 108.844 271.739 108.871 271.772V271.776C108.908 271.818 108.946 271.855 108.983 271.896C109.55 272.525 110.135 273.139 110.738 273.74L110.834 273.837C110.866 273.869 110.904 273.901 110.936 273.938C110.989 273.989 111.037 274.04 111.091 274.091C111.139 274.142 111.193 274.193 111.246 274.243C114.388 277.3 117.951 280.013 121.855 282.324C122.374 282.633 122.904 282.934 123.433 283.225C123.567 283.298 123.701 283.372 123.835 283.442C123.872 283.465 123.915 283.488 123.952 283.511C124.027 283.548 124.097 283.585 124.172 283.627C124.241 283.663 124.311 283.7 124.386 283.737C124.669 283.89 124.958 284.038 125.247 284.186C125.317 284.222 125.392 284.259 125.466 284.296C125.536 284.329 125.611 284.366 125.686 284.403C125.686 284.407 125.686 284.407 125.691 284.407H125.696V284.412H125.702C126.06 284.592 126.424 284.768 126.793 284.939C126.991 285.031 127.194 285.128 127.398 285.216C127.858 285.433 128.323 285.641 128.789 285.839C128.955 285.909 129.126 285.978 129.292 286.052C129.431 286.107 129.57 286.167 129.709 286.223C129.752 286.241 129.789 286.255 129.827 286.274C129.944 286.32 130.057 286.366 130.174 286.412C130.303 286.463 130.431 286.514 130.554 286.565C130.699 286.62 130.838 286.676 130.982 286.727C131.517 286.934 132.058 287.133 132.598 287.322C134.534 288.008 136.513 288.6 138.526 289.097C138.617 289.12 138.713 289.143 138.809 289.166C139.671 289.374 140.537 289.563 141.41 289.734C142.934 290.039 144.473 290.289 146.027 290.483H146.037C146.225 290.506 146.406 290.529 146.594 290.552C146.61 290.552 146.626 290.556 146.647 290.556C146.647 290.561 146.647 290.561 146.653 290.556C146.856 290.58 147.064 290.603 147.268 290.626C147.282 290.629 147.296 290.631 147.311 290.63C147.503 290.653 147.701 290.672 147.894 290.69C148.102 290.709 148.311 290.727 148.52 290.746C148.68 290.76 148.841 290.774 149.001 290.787C149.015 290.792 149.03 290.793 149.044 290.792C149.188 290.801 149.333 290.815 149.477 290.824H149.499C149.622 290.834 149.75 290.843 149.873 290.852C151.366 290.954 152.864 291 154.383 291C156.026 291 157.658 290.945 159.268 290.824H159.284C159.632 290.797 159.974 290.769 160.317 290.741C160.407 290.732 160.493 290.727 160.584 290.718C160.6 290.718 160.621 290.714 160.638 290.714C160.664 290.709 160.691 290.709 160.723 290.704C160.738 290.705 160.752 290.703 160.766 290.7C160.884 290.69 161.001 290.677 161.124 290.667L161.526 290.626C161.659 290.612 161.793 290.593 161.927 290.58C161.959 290.575 161.986 290.575 162.018 290.57C162.114 290.561 162.21 290.547 162.307 290.533C162.355 290.529 162.403 290.524 162.446 290.52C162.542 290.506 162.633 290.496 162.729 290.483H162.735C165.67 290.118 168.568 289.554 171.402 288.796C171.552 288.755 171.701 288.718 171.851 288.676C171.857 288.676 171.862 288.672 171.867 288.672C171.91 288.658 171.958 288.648 172.001 288.635C172.402 288.524 172.798 288.408 173.194 288.288C173.74 288.131 174.28 287.96 174.82 287.784C174.965 287.734 175.109 287.687 175.254 287.637C175.548 287.54 175.837 287.438 176.126 287.336C176.618 287.165 177.11 286.985 177.597 286.8C178.052 286.625 178.501 286.449 178.951 286.265C178.961 286.26 178.977 286.26 178.988 286.251C179.09 286.209 179.191 286.167 179.288 286.126H179.293C181.757 285.105 184.133 283.933 186.403 282.619C187.131 282.199 187.848 281.765 188.554 281.317C189.121 280.952 189.677 280.582 190.234 280.203C192.979 278.318 195.52 276.221 197.826 273.938V273.934C197.991 273.777 198.147 273.615 198.307 273.453C198.334 273.43 198.355 273.407 198.377 273.389C198.478 273.282 198.575 273.181 198.676 273.079V273.075C198.81 272.941 198.944 272.802 199.072 272.663C199.104 272.631 199.131 272.603 199.158 272.576V272.571C199.265 272.46 199.366 272.349 199.473 272.234C199.527 272.178 199.575 272.123 199.628 272.067V272.063C199.944 271.721 200.249 271.379 200.554 271.028C200.634 270.935 200.715 270.838 200.8 270.741C201.185 270.293 201.56 269.836 201.924 269.379V269.374C202.063 269.203 202.196 269.027 202.336 268.857C202.469 268.681 202.603 268.505 202.737 268.33C202.871 268.145 203.01 267.965 203.143 267.78L203.16 267.752C203.293 267.577 203.427 267.392 203.555 267.212C203.657 267.064 203.759 266.921 203.86 266.778C203.925 266.681 203.994 266.584 204.058 266.482C204.083 266.451 204.107 266.418 204.128 266.385C204.278 266.159 204.427 265.932 204.577 265.706C204.754 265.442 204.925 265.174 205.096 264.907C205.16 264.796 205.23 264.685 205.3 264.574C205.326 264.537 205.348 264.5 205.369 264.463C205.449 264.334 205.53 264.2 205.604 264.066C205.685 263.936 205.765 263.802 205.845 263.668C205.92 263.539 206 263.405 206.075 263.271C206.134 263.169 206.188 263.068 206.246 262.966C206.251 262.958 206.256 262.95 206.263 262.943C206.289 262.892 206.316 262.846 206.337 262.8C206.344 262.793 206.349 262.785 206.353 262.777C206.412 262.675 206.466 262.569 206.525 262.467C206.6 262.333 206.669 262.195 206.744 262.061C206.792 261.968 206.846 261.871 206.894 261.774C206.963 261.64 207.038 261.506 207.102 261.368C207.177 261.229 207.247 261.09 207.316 260.947C207.337 260.913 207.354 260.877 207.37 260.841C207.407 260.776 207.434 260.712 207.466 260.647C207.552 260.476 207.637 260.3 207.718 260.129C207.814 259.935 207.905 259.737 207.991 259.543C208.076 259.363 208.156 259.178 208.237 258.993L208.269 258.928C209.515 256.093 210.461 253.166 211.094 250.183V250.178C211.45 248.475 211.706 246.757 211.859 245.031C211.864 244.934 211.875 244.842 211.88 244.75C211.976 243.581 212.019 242.407 212.019 241.229C212.019 240.707 212.008 240.19 211.992 239.672C211.619 228.851 207.15 218.433 199.27 210.012C199.099 209.827 198.928 209.643 198.751 209.458C198.575 209.273 198.393 209.093 198.216 208.913C192.351 202.982 184.955 198.323 176.622 195.314C168.29 192.304 159.256 191.028 150.248 191.586C141.239 192.145 132.509 194.524 124.76 198.531C117.012 202.538 110.462 208.061 105.639 214.655C105.377 215.016 105.115 215.381 104.863 215.746C104.607 216.115 104.361 216.485 104.114 216.859C99.2677 224.299 96.7282 232.693 96.7421 241.229Z" fill="#01589B"/>
<path d="M152.092 208.674C161.57 210.774 171.283 211.985 181.062 212.285C182.54 212.354 184.023 212.345 185.5 212.259C188.747 212.023 191.528 211.141 194.626 210.66C196.115 210.429 197.774 210.26 199.273 210.011C198.926 209.64 198.574 209.273 198.215 208.911C194.982 209.147 191.699 209.919 188.428 210.278C182.867 210.888 176.636 210.207 172.421 208.526C170.375 207.711 168.809 206.693 166.77 205.874C166.493 205.751 166.193 205.672 165.884 205.639C165.296 205.624 164.715 205.754 164.21 206.014C160.791 207.505 155.827 208.716 151.218 208.05C150.875 208.282 151.527 208.546 152.092 208.674Z" fill="white"/>
<path d="M131.701 213.92C131.659 213.913 131.617 213.908 131.574 213.902C131.751 213.807 131.918 213.699 132.072 213.578L131.701 213.92Z" fill="white"/>
<path d="M104.116 216.861C106.04 216.994 107.975 217.093 109.92 217.157C111.398 217.226 112.881 217.218 114.358 217.131C117.605 216.894 120.386 216.014 123.484 215.533C126.322 215.092 129.772 214.88 131.574 213.902C126.916 213.206 122.089 214.623 117.286 215.15C113.4 215.563 109.462 215.395 105.642 214.654C105.11 215.376 104.601 216.112 104.116 216.861Z" fill="white"/>
<path d="M127.398 285.216C127.858 285.433 128.323 285.641 128.789 285.839C128.955 285.909 129.126 285.978 129.292 286.052C129.431 286.107 129.57 286.167 129.709 286.223C129.752 286.241 129.789 286.255 129.827 286.274C129.944 286.32 130.057 286.366 130.174 286.412C130.303 286.463 130.431 286.514 130.554 286.565C130.699 286.62 130.838 286.676 130.982 286.726C131.517 286.934 132.058 287.133 132.598 287.322C134.534 288.008 136.513 288.6 138.526 289.097C138.617 289.12 138.713 289.143 138.809 289.166C139.671 289.374 140.537 289.563 141.409 289.734C142.934 290.039 144.473 290.289 146.027 290.483H146.037C146.224 290.506 146.406 290.529 146.594 290.552C146.61 290.552 146.626 290.556 146.647 290.556C146.647 290.561 146.647 290.561 146.652 290.556C146.856 290.58 147.064 290.603 147.268 290.626C147.282 290.629 147.296 290.631 147.311 290.63C147.503 290.653 147.701 290.672 147.894 290.69C148.102 290.709 148.311 290.727 148.52 290.746C148.68 290.76 148.841 290.774 149.001 290.787C149.015 290.792 149.029 290.793 149.044 290.792C149.188 290.801 149.333 290.815 149.477 290.824H149.499C149.622 290.834 149.75 290.843 149.873 290.852C151.366 290.954 152.864 291 154.383 291C156.026 291 157.657 290.945 159.268 290.824H159.284C159.632 290.797 159.974 290.769 160.316 290.741C160.407 290.732 160.493 290.727 160.584 290.718C160.6 290.718 160.621 290.714 160.637 290.714C160.664 290.709 160.691 290.709 160.723 290.704C160.738 290.705 160.752 290.703 160.766 290.7C160.884 290.69 161.001 290.677 161.124 290.667L161.526 290.626C161.659 290.612 161.793 290.593 161.927 290.58C161.959 290.575 161.986 290.575 162.018 290.57C162.114 290.561 162.21 290.547 162.307 290.533C162.355 290.529 162.403 290.524 162.446 290.519C162.542 290.506 162.633 290.496 162.729 290.483H162.735C165.67 290.118 168.568 289.554 171.402 288.796C171.551 288.755 171.701 288.718 171.851 288.676C171.16 285.894 169.738 283.287 167.695 281.055C165.651 278.823 163.041 277.027 160.065 275.805C160.801 275.199 161.31 274.417 161.526 273.56C161.664 273.007 161.675 272.436 161.558 271.879C161.44 271.322 161.197 270.791 160.841 270.316C160.147 269.396 159.057 268.751 157.813 268.524L149.884 267.092C148.608 266.877 147.285 267.106 146.203 267.729C145.121 268.351 144.367 269.318 144.106 270.418C144.025 270.755 143.989 271.099 143.999 271.444C136.364 275.833 130.87 280.383 127.398 285.216Z" fill="#0378BD"/>
<path d="M150.809 264.387C159.932 264.387 167.327 258.001 167.327 250.123C167.327 242.245 159.932 235.859 150.809 235.859C141.686 235.859 134.29 242.245 134.29 250.123C134.29 258.001 141.686 264.387 150.809 264.387Z" fill="#FFB8B8"/>
<path d="M140.513 262.421C138.751 261.382 136.952 259.385 135.751 257.889C134.16 255.922 133.065 253.688 132.537 251.332C132.01 248.976 132.061 246.551 132.689 244.213C132.889 243.279 133.38 242.409 134.111 241.698C134.889 241.033 136.159 240.718 137.109 241.188C136.85 240.588 136.736 239.95 136.773 239.311C136.811 238.672 137 238.047 137.329 237.473C137.996 236.329 138.963 235.334 140.153 234.568C142.429 233.055 145.137 232.102 147.99 231.81C150.842 231.519 153.733 231.899 156.355 232.912C157.387 233.325 155.692 230.136 156.772 230.444C157.845 230.802 159.038 230.784 160.095 230.393C161.111 229.952 164.478 232.575 164.089 231.653C164.859 231.955 165.529 232.421 166.035 233.006C166.542 233.592 166.868 234.279 166.984 235.004C167.1 235.728 167.002 236.466 166.699 237.148C166.396 237.831 165.897 238.436 165.25 238.907C164.398 239.529 163.334 239.887 162.4 240.414C160.765 241.408 159.607 242.884 159.146 244.564C158.685 246.245 158.952 248.013 159.897 249.534C158.915 248.989 157.837 248.585 156.706 248.337C156.138 248.217 155.546 248.216 154.978 248.334C154.409 248.452 153.882 248.686 153.44 249.015C153.07 249.381 152.791 249.807 152.619 250.27C152.447 250.732 152.386 251.219 152.441 251.702C152.478 252.67 152.744 253.624 152.774 254.592C152.862 257.433 154.624 262.834 152.073 264.344C150.06 265.536 142.918 263.84 140.513 262.421Z" fill="black"/>
<path d="M162.167 178.726C161.819 178.725 161.474 178.665 161.153 178.549C160.675 178.383 160.265 178.096 159.978 177.725C159.691 177.355 159.541 176.918 159.546 176.472V174.214C159.546 173.741 159.328 173.287 158.94 172.952C158.552 172.617 158.026 172.429 157.478 172.428C156.788 172.427 156.126 172.19 155.638 171.769C155.15 171.347 154.875 170.776 154.874 170.18V139.247C154.875 138.651 155.15 138.079 155.638 137.658C156.126 137.236 156.787 136.999 157.478 136.998H276.156C276.846 136.999 277.508 137.236 277.996 137.658C278.484 138.079 278.758 138.651 278.759 139.247V170.18C278.758 170.776 278.484 171.347 277.996 171.769C277.508 172.19 276.846 172.427 276.156 172.428H171.372C171.101 172.427 170.831 172.473 170.58 172.563C170.329 172.653 170.101 172.785 169.909 172.951L163.991 178.062C163.753 178.271 163.469 178.438 163.156 178.552C162.843 178.666 162.506 178.725 162.167 178.726Z" fill="white"/>
<path d="M162.167 179.188C161.748 179.187 161.334 179.115 160.949 178.976C160.371 178.775 159.878 178.429 159.532 177.983C159.186 177.536 159.005 177.009 159.012 176.472V174.215C159.011 173.864 158.849 173.527 158.562 173.279C158.275 173.03 157.885 172.89 157.478 172.89C156.646 172.889 155.848 172.603 155.26 172.095C154.671 171.587 154.34 170.898 154.339 170.179V139.247C154.34 138.528 154.671 137.839 155.26 137.331C155.848 136.823 156.646 136.537 157.478 136.536H276.156C276.988 136.537 277.786 136.823 278.374 137.331C278.962 137.839 279.293 138.528 279.294 139.247V170.179C279.293 170.898 278.962 171.587 278.374 172.095C277.786 172.603 276.988 172.889 276.156 172.89H171.372C171.171 172.89 170.971 172.924 170.785 172.99C170.599 173.057 170.43 173.155 170.288 173.278L164.37 178.388C164.082 178.641 163.739 178.842 163.361 178.979C162.983 179.116 162.577 179.187 162.167 179.188ZM157.478 137.46C156.929 137.461 156.404 137.649 156.016 137.984C155.628 138.319 155.41 138.773 155.409 139.247V170.179C155.41 170.653 155.628 171.107 156.016 171.442C156.404 171.777 156.93 171.966 157.478 171.966C158.168 171.967 158.83 172.204 159.318 172.626C159.806 173.047 160.081 173.619 160.082 174.215V176.472C160.082 176.826 160.203 177.171 160.43 177.465C160.658 177.758 160.981 177.987 161.359 178.122C161.737 178.257 162.153 178.293 162.554 178.224C162.955 178.155 163.324 177.985 163.613 177.735L169.531 172.625C169.772 172.415 170.059 172.249 170.375 172.136C170.691 172.023 171.03 171.965 171.372 171.966H276.156C276.704 171.966 277.23 171.777 277.618 171.442C278.006 171.107 278.224 170.653 278.224 170.179V139.247C278.224 138.773 278.006 138.319 277.618 137.984C277.23 137.649 276.704 137.461 276.156 137.46L157.478 137.46Z" fill="#01589B"/>
<path d="M265.957 151.002H169.722C169.354 151.002 169.002 150.876 168.742 150.652C168.482 150.427 168.336 150.123 168.336 149.805C168.336 149.488 168.482 149.184 168.742 148.959C169.002 148.735 169.354 148.609 169.722 148.609H265.957C266.325 148.609 266.677 148.735 266.937 148.959C267.197 149.184 267.343 149.488 267.343 149.805C267.343 150.123 267.197 150.427 266.937 150.652C266.677 150.876 266.325 151.002 265.957 151.002Z" fill="#0378BD"/>
<path d="M265.78 156.088H169.722C169.354 156.088 169.002 155.962 168.742 155.737C168.482 155.513 168.336 155.208 168.336 154.891C168.336 154.573 168.482 154.269 168.742 154.044C169.002 153.82 169.354 153.694 169.722 153.694H265.78C266.148 153.694 266.501 153.82 266.761 154.044C267.021 154.269 267.167 154.573 267.167 154.891C267.167 155.208 267.021 155.513 266.761 155.737C266.501 155.962 266.148 156.088 265.78 156.088Z" fill="#E6E6E6"/>
<path d="M265.685 161.172H169.722C169.354 161.172 169.002 161.046 168.742 160.822C168.482 160.597 168.336 160.293 168.336 159.976C168.336 159.658 168.482 159.354 168.742 159.129C169.002 158.905 169.354 158.779 169.722 158.779H265.685C266.052 158.779 266.405 158.905 266.665 159.129C266.925 159.354 267.071 159.658 267.071 159.976C267.071 160.293 266.925 160.597 266.665 160.822C266.405 161.046 266.052 161.172 265.685 161.172Z" fill="#E6E6E6"/>
<path d="M417.508 132.198C417.508 133.321 417.466 134.444 417.375 135.557C417.278 136.888 417.112 138.209 416.888 139.521C416.133 143.939 414.689 148.248 412.597 152.332C412.49 152.535 412.383 152.739 412.276 152.942L412.116 153.247C412.062 153.348 412.003 153.45 411.95 153.547C411.875 153.681 411.805 153.81 411.73 153.94C411.639 154.102 411.548 154.263 411.452 154.425C411.441 154.443 411.431 154.466 411.415 154.49C411.334 154.628 411.26 154.762 411.174 154.901C411.158 154.931 411.14 154.96 411.12 154.989C411.029 155.146 410.933 155.307 410.837 155.464C410.73 155.631 410.628 155.802 410.521 155.968C410.264 156.379 409.997 156.786 409.724 157.192C409.644 157.312 409.564 157.433 409.478 157.553C409.403 157.664 409.328 157.774 409.248 157.885C409.194 157.959 409.141 158.038 409.087 158.112C409.002 158.236 408.916 158.356 408.825 158.481C408.627 158.754 408.424 159.026 408.226 159.299H408.221C408.13 159.424 408.033 159.548 407.937 159.669V159.673C407.654 160.043 407.359 160.412 407.065 160.777C407.064 160.777 407.064 160.777 407.063 160.778C407.062 160.778 407.062 160.778 407.061 160.779C407.061 160.779 407.06 160.78 407.06 160.78C407.06 160.781 407.06 160.781 407.06 160.782C406.824 161.078 406.578 161.364 406.337 161.651V161.655C406.177 161.835 406.022 162.02 405.861 162.2C405.733 162.348 405.599 162.501 405.465 162.648C405.439 162.681 405.407 162.708 405.38 162.741V162.745C405.342 162.787 405.305 162.824 405.267 162.866C404.7 163.494 404.115 164.108 403.513 164.709L403.416 164.806C403.384 164.838 403.347 164.871 403.315 164.908C403.261 164.958 403.213 165.009 403.16 165.06C403.111 165.111 403.058 165.162 403.004 165.213C399.862 168.269 396.3 170.983 392.395 173.293C391.876 173.602 391.347 173.903 390.817 174.194C390.683 174.268 390.55 174.342 390.416 174.411C390.378 174.434 390.336 174.457 390.298 174.48C390.223 174.517 390.154 174.554 390.079 174.596C390.009 174.633 389.94 174.67 389.865 174.707C389.581 174.859 389.292 175.007 389.003 175.155C388.934 175.192 388.859 175.229 388.784 175.266C388.715 175.298 388.64 175.335 388.565 175.372C388.565 175.376 388.565 175.376 388.559 175.376H388.554V175.381H388.549C388.19 175.561 387.826 175.737 387.457 175.908C387.259 176 387.056 176.097 386.853 176.185C386.393 176.402 385.927 176.61 385.462 176.809C385.296 176.878 385.125 176.947 384.959 177.021C384.82 177.077 384.681 177.137 384.541 177.192C384.499 177.211 384.461 177.224 384.424 177.243C384.306 177.289 384.194 177.335 384.076 177.381C383.948 177.432 383.819 177.483 383.696 177.534C383.552 177.589 383.413 177.645 383.268 177.696C382.733 177.904 382.193 178.102 381.652 178.292C379.716 178.977 377.737 179.569 375.725 180.066C375.634 180.089 375.537 180.112 375.441 180.135C374.58 180.343 373.713 180.532 372.841 180.703C371.316 181.008 369.777 181.258 368.224 181.452H368.213C368.026 181.475 367.844 181.498 367.657 181.521C367.641 181.521 367.625 181.526 367.603 181.526C367.603 181.53 367.603 181.53 367.598 181.526C367.395 181.549 367.186 181.572 366.983 181.595C366.969 181.598 366.954 181.6 366.94 181.6C366.747 181.623 366.549 181.641 366.357 181.66C366.148 181.678 365.939 181.697 365.731 181.715C365.57 181.729 365.41 181.743 365.249 181.757C365.236 181.761 365.221 181.762 365.206 181.761C365.062 181.77 364.918 181.784 364.773 181.794H364.752C364.629 181.803 364.5 181.812 364.377 181.821C362.885 181.923 361.387 181.969 359.867 181.969C358.225 181.969 356.593 181.914 354.983 181.794H354.967C354.619 181.766 354.276 181.738 353.934 181.71C353.843 181.701 353.757 181.697 353.666 181.687C353.65 181.687 353.629 181.683 353.613 181.683C353.586 181.678 353.559 181.678 353.527 181.673C353.513 181.674 353.498 181.672 353.485 181.669C353.367 181.66 353.249 181.646 353.126 181.636L352.725 181.595C352.591 181.581 352.457 181.563 352.324 181.549C352.292 181.544 352.265 181.544 352.233 181.539C352.136 181.53 352.04 181.516 351.944 181.503C351.896 181.498 351.847 181.493 351.805 181.489C351.708 181.475 351.617 181.466 351.521 181.452H351.516C348.58 181.087 345.682 180.523 342.849 179.765C342.699 179.724 342.549 179.687 342.399 179.645C342.394 179.645 342.389 179.641 342.383 179.641C342.34 179.627 342.292 179.618 342.25 179.604C341.848 179.493 341.452 179.377 341.056 179.257C340.511 179.1 339.97 178.929 339.43 178.754C339.286 178.703 339.141 178.657 338.997 178.606C338.702 178.509 338.414 178.407 338.125 178.305C337.632 178.135 337.14 177.954 336.653 177.77C336.199 177.594 335.749 177.418 335.3 177.234C335.289 177.229 335.273 177.229 335.262 177.22C335.161 177.178 335.059 177.137 334.963 177.095H334.957C332.494 176.074 330.118 174.902 327.847 173.589C327.12 173.168 326.403 172.734 325.697 172.286C325.129 171.921 324.573 171.551 324.017 171.172C321.272 169.287 318.731 167.19 316.425 164.908V164.903C316.259 164.746 316.104 164.584 315.943 164.423C315.917 164.399 315.895 164.376 315.874 164.358C315.772 164.252 315.676 164.15 315.574 164.048V164.044C315.441 163.91 315.307 163.771 315.178 163.633C315.146 163.6 315.12 163.572 315.093 163.545V163.54C314.986 163.429 314.884 163.318 314.777 163.203C314.724 163.147 314.675 163.092 314.622 163.037V163.032C314.306 162.69 314.001 162.348 313.696 161.997C313.616 161.905 313.536 161.808 313.45 161.711C313.065 161.262 312.691 160.805 312.327 160.348V160.343C312.188 160.172 312.054 159.997 311.915 159.826C311.781 159.65 311.647 159.475 311.514 159.299C311.38 159.114 311.241 158.934 311.107 158.749L311.091 158.722C310.957 158.546 310.823 158.361 310.695 158.181C310.593 158.033 310.492 157.89 310.39 157.747C310.326 157.65 310.256 157.553 310.192 157.451C310.167 157.42 310.144 157.387 310.123 157.354C309.973 157.128 309.823 156.901 309.673 156.675C309.497 156.412 309.325 156.144 309.154 155.876C309.09 155.765 309.021 155.654 308.951 155.543C308.924 155.506 308.903 155.469 308.881 155.432C308.801 155.303 308.721 155.169 308.646 155.035C308.566 154.905 308.485 154.771 308.405 154.637C308.33 154.508 308.25 154.374 308.175 154.24C308.116 154.139 308.063 154.037 308.004 153.935C308 153.927 307.994 153.919 307.988 153.912C307.961 153.861 307.934 153.815 307.913 153.769C307.907 153.762 307.901 153.754 307.897 153.746C307.838 153.644 307.785 153.538 307.726 153.436C307.651 153.302 307.581 153.164 307.506 153.03C307.458 152.937 307.405 152.84 307.357 152.743C307.287 152.609 307.212 152.475 307.148 152.337C307.073 152.198 307.004 152.06 306.934 151.916C306.914 151.882 306.896 151.846 306.88 151.81C306.843 151.745 306.816 151.681 306.784 151.616C306.699 151.445 306.613 151.27 306.533 151.099C306.436 150.905 306.346 150.706 306.26 150.512C306.174 150.332 306.094 150.147 306.014 149.962L305.982 149.897C304.735 147.062 303.79 144.135 303.157 141.152V141.147C302.8 139.444 302.545 137.726 302.392 136.001C302.386 135.904 302.376 135.811 302.37 135.719C302.274 134.55 302.231 133.376 302.231 132.198C302.231 131.676 302.242 131.159 302.258 130.641C302.632 119.82 307.1 109.402 314.98 100.981C315.152 100.796 315.323 100.612 315.499 100.427C315.676 100.242 315.858 100.062 316.034 99.8817C321.899 93.9507 329.296 89.2926 337.628 86.283C345.96 83.2735 354.995 81.9966 364.003 82.5554C373.011 83.1142 381.742 85.493 389.49 89.5001C397.239 93.5071 403.788 99.0303 408.611 105.624C408.873 105.985 409.136 106.35 409.387 106.715C409.644 107.084 409.89 107.454 410.136 107.828C414.983 115.268 417.522 123.662 417.508 132.198Z" fill="#01589B"/>
<path d="M362.158 99.6428C352.68 101.743 342.967 102.954 333.189 103.253C331.71 103.323 330.228 103.314 328.75 103.227C325.503 102.992 322.722 102.11 319.624 101.629C318.135 101.398 316.477 101.229 314.978 100.98C315.324 100.608 315.677 100.242 316.035 99.8799C319.268 100.116 322.551 100.888 325.822 101.246C331.383 101.857 337.614 101.176 341.83 99.4951C343.875 98.6797 345.442 97.6619 347.48 96.8427C347.757 96.7198 348.057 96.6404 348.367 96.6081C348.954 96.5929 349.535 96.7229 350.04 96.983C353.459 98.4736 358.424 99.685 363.032 99.0185C363.375 99.2506 362.723 99.515 362.158 99.6428Z" fill="white"/>
<path d="M382.549 104.889C382.592 104.882 382.634 104.877 382.676 104.871C382.499 104.776 382.332 104.668 382.178 104.547L382.549 104.889Z" fill="white"/>
<path d="M410.135 107.83C408.21 107.963 406.276 108.062 404.331 108.126C402.852 108.195 401.37 108.187 399.892 108.1C396.645 107.863 393.864 106.983 390.767 106.502C387.928 106.061 384.478 105.849 382.676 104.871C387.334 104.175 392.161 105.592 396.965 106.119C400.85 106.532 404.789 106.364 408.608 105.623C409.14 106.345 409.649 107.081 410.135 107.83Z" fill="white"/>
<path d="M353.369 153.977C362.93 153.977 370.681 147.135 370.681 138.695C370.681 130.254 362.93 123.412 353.369 123.412C343.808 123.412 336.057 130.254 336.057 138.695C336.057 147.135 343.808 153.977 353.369 153.977Z" fill="#FFB6B6"/>
<path d="M386.853 176.185C386.393 176.402 385.927 176.61 385.462 176.808C385.296 176.878 385.125 176.947 384.959 177.021C384.82 177.076 384.681 177.136 384.541 177.192C384.499 177.21 384.461 177.224 384.424 177.243C384.306 177.289 384.194 177.335 384.076 177.381C383.948 177.432 383.819 177.483 383.696 177.534C383.552 177.589 383.413 177.645 383.268 177.696C382.733 177.903 382.193 178.102 381.652 178.291C379.716 178.977 377.737 179.569 375.725 180.066C375.634 180.089 375.537 180.112 375.441 180.135C374.58 180.343 373.713 180.532 372.841 180.703C371.316 181.008 369.777 181.258 368.224 181.452H368.213C368.026 181.475 367.844 181.498 367.657 181.521C367.641 181.521 367.625 181.525 367.603 181.525C367.603 181.53 367.603 181.53 367.598 181.525C367.395 181.549 367.186 181.572 366.983 181.595C366.969 181.598 366.954 181.6 366.94 181.599C366.747 181.622 366.549 181.641 366.357 181.659C366.148 181.678 365.939 181.696 365.731 181.715C365.57 181.729 365.41 181.743 365.249 181.756C365.236 181.761 365.221 181.762 365.206 181.761C365.062 181.77 364.918 181.784 364.773 181.793H364.752C364.629 181.803 364.5 181.812 364.377 181.821C362.885 181.923 361.387 181.969 359.867 181.969C358.225 181.969 356.593 181.914 354.983 181.793H354.966C354.619 181.766 354.276 181.738 353.934 181.71C353.843 181.701 353.757 181.696 353.666 181.687C353.65 181.687 353.629 181.683 353.613 181.683C353.586 181.678 353.559 181.678 353.527 181.673C353.513 181.674 353.498 181.672 353.485 181.669C353.367 181.659 353.249 181.646 353.126 181.636L352.725 181.595C352.591 181.581 352.457 181.562 352.324 181.549C352.291 181.544 352.265 181.544 352.233 181.539C352.136 181.53 352.04 181.516 351.944 181.502C351.896 181.498 351.847 181.493 351.805 181.489C351.708 181.475 351.617 181.465 351.521 181.452H351.516C348.58 181.087 345.682 180.523 342.849 179.765C342.699 179.724 342.549 179.687 342.399 179.645C343.09 176.863 344.512 174.256 346.556 172.024C348.599 169.792 351.21 167.996 354.185 166.774C353.449 166.169 352.941 165.386 352.725 164.529C352.586 163.976 352.575 163.405 352.692 162.848C352.81 162.291 353.054 161.76 353.41 161.285C354.104 160.365 355.193 159.72 356.438 159.493L364.366 158.061C365.643 157.846 366.966 158.075 368.048 158.698C369.13 159.32 369.883 160.287 370.145 161.387C370.225 161.724 370.261 162.068 370.252 162.413C377.886 166.802 383.381 171.352 386.853 176.185Z" fill="#0378BD"/>
<path d="M399.694 132.067C396.751 129.103 395.352 125.172 393 121.807C390.647 118.442 386.554 115.43 382.229 116.213C379.248 116.753 376.944 119.025 375.777 121.557C374.611 124.09 374.393 126.883 374.188 129.619C374.26 123.996 369.97 118.545 364.061 116.751C358.152 114.957 351.079 116.958 347.366 121.475C345.746 120.178 343.63 119.44 341.421 119.4C339.212 119.36 337.063 120.021 335.381 121.258C332.06 123.822 331.325 128.701 333.767 131.971C336.21 135.24 341.5 136.458 345.382 134.645L346.754 135.735C345.982 138.068 347.48 140.824 349.998 141.703C352.04 142.415 354.923 142.296 355.687 144.147C356.221 145.44 355.223 146.82 354.161 147.814C353.1 148.807 351.839 149.833 351.712 151.208C351.519 153.283 354.002 154.736 356.259 155.174C361.7 156.229 367.738 154.053 370.875 149.906C370.935 149.826 371.001 149.746 371.072 149.666C372.832 147.722 374.114 145.49 374.841 143.104C375.568 140.718 375.723 138.23 375.299 135.79C375.122 134.832 375.3 134.119 376.065 133.892C379.373 132.911 388.64 134.97 391.445 136.831C394.25 138.692 396.496 141.155 399.197 143.136C401.899 145.118 405.341 146.646 408.772 146.106C411.519 145.674 413.856 143.952 415.428 141.874C417 139.797 417.905 137.375 418.715 134.969C412.64 137.999 404.326 136.731 399.694 132.067Z" fill="black"/>
<path d="M44.3119 101.907C44.3119 103.03 44.3547 104.153 44.4457 105.266C44.542 106.597 44.7079 107.918 44.9326 109.23C45.6877 113.648 47.131 117.957 49.2233 122.041C49.3302 122.244 49.4372 122.448 49.5443 122.651L49.7048 122.956C49.7583 123.057 49.8171 123.159 49.8706 123.256C49.9455 123.39 50.0151 123.519 50.09 123.649C50.1809 123.81 50.2719 123.972 50.3682 124.134C50.3789 124.152 50.3896 124.175 50.4056 124.199C50.4859 124.337 50.5608 124.471 50.6464 124.61C50.6621 124.64 50.68 124.669 50.6999 124.698C50.7908 124.855 50.8871 125.016 50.9834 125.173C51.0904 125.34 51.1921 125.511 51.2991 125.677C51.5559 126.088 51.8234 126.495 52.0962 126.901C52.1765 127.021 52.2567 127.141 52.3423 127.262C52.4172 127.372 52.4921 127.483 52.5724 127.594C52.6259 127.668 52.6794 127.747 52.7329 127.821C52.8185 127.945 52.9041 128.065 52.995 128.19C53.193 128.463 53.3963 128.735 53.5942 129.008H53.5996C53.6905 129.133 53.7868 129.257 53.8831 129.378V129.382C54.1667 129.752 54.4609 130.121 54.7552 130.486C54.7559 130.486 54.7566 130.486 54.7572 130.487C54.7579 130.487 54.7585 130.487 54.759 130.488C54.7595 130.488 54.7599 130.489 54.7602 130.489C54.7604 130.49 54.7606 130.49 54.7605 130.491C54.9959 130.787 55.242 131.073 55.4828 131.359V131.364C55.6433 131.544 55.7984 131.729 55.9589 131.909C56.0873 132.057 56.2211 132.21 56.3548 132.357C56.3816 132.39 56.4137 132.417 56.4404 132.45V132.454C56.4779 132.496 56.5153 132.533 56.5528 132.575C57.1199 133.203 57.7048 133.817 58.3076 134.418L58.4039 134.515C58.436 134.547 58.4735 134.58 58.5056 134.617C58.5591 134.667 58.6072 134.718 58.6607 134.769C58.7089 134.82 58.7624 134.871 58.8159 134.921C61.958 137.978 65.5207 140.691 69.425 143.002C69.9439 143.311 70.4736 143.612 71.0032 143.903C71.137 143.977 71.2707 144.051 71.4045 144.12C71.4419 144.143 71.4847 144.166 71.5222 144.189C71.5971 144.226 71.6666 144.263 71.7415 144.305C71.8111 144.342 71.8806 144.379 71.9555 144.415C72.2391 144.568 72.528 144.716 72.8169 144.864C72.8864 144.901 72.9613 144.938 73.0362 144.975C73.1058 145.007 73.1807 145.044 73.2556 145.081C73.2556 145.085 73.2556 145.085 73.2609 145.085H73.2663V145.09H73.2716C73.6301 145.27 73.9939 145.446 74.363 145.617C74.561 145.709 74.7643 145.806 74.9676 145.894C75.4277 146.111 75.8932 146.319 76.3586 146.518C76.5245 146.587 76.6957 146.656 76.8615 146.73C77.0006 146.786 77.1397 146.846 77.2788 146.901C77.3216 146.92 77.3591 146.933 77.3965 146.952C77.5142 146.998 77.6266 147.044 77.7443 147.09C77.8727 147.141 78.0011 147.192 78.1241 147.243C78.2686 147.298 78.4077 147.354 78.5521 147.405C79.0871 147.613 79.6275 147.811 80.1678 148.001C82.1043 148.686 84.0833 149.278 86.0956 149.775C86.1866 149.798 86.2829 149.821 86.3792 149.844C87.2406 150.052 88.1073 150.241 88.9793 150.412C90.5041 150.717 92.0431 150.967 93.5964 151.161H93.6071C93.7944 151.184 93.9763 151.207 94.1635 151.23C94.1796 151.23 94.1956 151.235 94.217 151.235C94.217 151.239 94.217 151.239 94.2224 151.235C94.4257 151.258 94.6343 151.281 94.8376 151.304C94.8515 151.307 94.866 151.309 94.8804 151.308C95.073 151.332 95.271 151.35 95.4636 151.369C95.6722 151.387 95.8808 151.405 96.0895 151.424C96.25 151.438 96.4105 151.452 96.571 151.466C96.5848 151.47 96.5993 151.471 96.6138 151.47C96.7583 151.479 96.9027 151.493 97.0472 151.503H97.0686C97.1916 151.512 97.32 151.521 97.4431 151.53C98.9357 151.632 100.434 151.678 101.953 151.678C103.596 151.678 105.227 151.623 106.838 151.503H106.854C107.202 151.475 107.544 151.447 107.886 151.419C107.977 151.41 108.063 151.406 108.154 151.396C108.17 151.396 108.191 151.392 108.207 151.392C108.234 151.387 108.261 151.387 108.293 151.382C108.307 151.383 108.322 151.381 108.336 151.378C108.453 151.369 108.571 151.355 108.694 151.345L109.095 151.304C109.229 151.29 109.363 151.272 109.497 151.258C109.529 151.253 109.556 151.253 109.588 151.248C109.684 151.239 109.78 151.225 109.877 151.211C109.925 151.207 109.973 151.202 110.016 151.198C110.112 151.184 110.203 151.175 110.299 151.161H110.305C113.24 150.796 116.138 150.232 118.972 149.474C119.121 149.433 119.271 149.396 119.421 149.354C119.426 149.354 119.432 149.35 119.437 149.35C119.48 149.336 119.528 149.327 119.571 149.313C119.972 149.202 120.368 149.086 120.764 148.966C121.31 148.809 121.85 148.638 122.39 148.463C122.535 148.412 122.679 148.366 122.824 148.315C123.118 148.218 123.407 148.116 123.696 148.014C124.188 147.844 124.68 147.663 125.167 147.479C125.622 147.303 126.071 147.127 126.52 146.943C126.531 146.938 126.547 146.938 126.558 146.929C126.66 146.887 126.761 146.846 126.858 146.804H126.863C129.327 145.783 131.703 144.611 133.973 143.297C134.701 142.877 135.418 142.443 136.124 141.995C136.691 141.63 137.247 141.26 137.804 140.881C140.549 138.996 143.09 136.899 145.395 134.617V134.612C145.561 134.455 145.716 134.293 145.877 134.131C145.904 134.108 145.925 134.085 145.946 134.067C146.048 133.961 146.144 133.859 146.246 133.757V133.753C146.38 133.619 146.514 133.48 146.642 133.341C146.674 133.309 146.701 133.281 146.728 133.254V133.249C146.835 133.138 146.936 133.027 147.043 132.912C147.097 132.856 147.145 132.801 147.198 132.745V132.741C147.514 132.399 147.819 132.057 148.124 131.706C148.204 131.614 148.284 131.517 148.37 131.42C148.755 130.971 149.13 130.514 149.493 130.057V130.052C149.633 129.881 149.766 129.706 149.905 129.535C150.039 129.359 150.173 129.184 150.307 129.008C150.44 128.823 150.58 128.643 150.713 128.458L150.729 128.43C150.863 128.255 150.997 128.07 151.125 127.89C151.227 127.742 151.329 127.599 151.43 127.456C151.494 127.359 151.564 127.262 151.628 127.16C151.653 127.129 151.676 127.096 151.698 127.063C151.847 126.837 151.997 126.61 152.147 126.384C152.324 126.121 152.495 125.853 152.666 125.585C152.73 125.474 152.8 125.363 152.869 125.252C152.896 125.215 152.918 125.178 152.939 125.141C153.019 125.012 153.099 124.878 153.174 124.744C153.255 124.614 153.335 124.48 153.415 124.346C153.49 124.217 153.57 124.083 153.645 123.949C153.704 123.847 153.757 123.746 153.816 123.644C153.82 123.636 153.826 123.628 153.832 123.621C153.859 123.57 153.886 123.524 153.907 123.478C153.914 123.471 153.919 123.463 153.923 123.455C153.982 123.353 154.036 123.247 154.095 123.145C154.169 123.011 154.239 122.873 154.314 122.739C154.362 122.646 154.416 122.549 154.464 122.452C154.533 122.318 154.608 122.184 154.672 122.046C154.747 121.907 154.817 121.768 154.886 121.625C154.906 121.591 154.924 121.555 154.94 121.519C154.977 121.454 155.004 121.39 155.036 121.325C155.122 121.154 155.207 120.978 155.288 120.808C155.384 120.613 155.475 120.415 155.56 120.221C155.646 120.041 155.726 119.856 155.807 119.671L155.839 119.606C157.085 116.771 158.031 113.844 158.663 110.861V110.856C159.02 109.153 159.276 107.435 159.428 105.71C159.434 105.612 159.445 105.52 159.45 105.428C159.546 104.259 159.589 103.085 159.589 101.907C159.589 101.385 159.578 100.868 159.562 100.35C159.189 89.5287 154.72 79.1107 146.84 70.6902C146.669 70.5054 146.497 70.3206 146.321 70.1358C146.144 69.951 145.962 69.7708 145.786 69.5907C139.921 63.6596 132.524 59.0016 124.192 55.992C115.86 52.9825 106.826 51.7056 97.8174 52.2644C88.809 52.8232 80.0786 55.202 72.3302 59.2091C64.5818 63.2161 58.0321 68.7393 53.2091 75.3333C52.9469 75.6936 52.6848 76.0586 52.4333 76.4236C52.1765 76.7932 51.9304 77.1628 51.6843 77.537C46.8375 84.9766 44.2981 93.3711 44.3119 101.907Z" fill="#01589B"/>
<path d="M99.6622 68.6891C109.14 70.7892 118.853 71.9998 128.632 72.2997C130.11 72.3693 131.593 72.3606 133.07 72.2737C136.317 72.0379 139.098 71.1566 142.196 70.675C143.685 70.4442 145.343 70.2754 146.843 70.0259C146.496 69.6548 146.144 69.2882 145.785 68.9262C142.552 69.162 139.269 69.934 135.998 70.2927C130.437 70.9034 124.206 70.222 119.99 68.5414C117.945 67.7259 116.378 66.7082 114.34 65.889C114.063 65.7661 113.763 65.6867 113.453 65.6544C112.866 65.6392 112.285 65.7692 111.78 66.0292C108.361 67.5199 103.396 68.7313 98.7883 68.0648C98.4447 68.2969 99.0973 68.5613 99.6622 68.6891Z" fill="white"/>
<path d="M79.2706 73.9351C79.2285 73.9285 79.1863 73.9233 79.1442 73.917C79.3212 73.8223 79.4879 73.7138 79.6422 73.593L79.2706 73.9351Z" fill="white"/>
<path d="M51.6852 76.8762C53.6098 77.009 55.5444 77.1079 57.4891 77.1729C58.9679 77.2418 60.4501 77.2331 61.9276 77.1468C65.1746 76.9097 67.9558 76.0297 71.0532 75.5481C73.892 75.1075 77.3416 74.8953 79.144 73.9172C74.4856 73.2209 69.659 74.6383 64.8555 75.1659C60.9699 75.5784 57.0312 75.4105 53.2116 74.6694C52.6798 75.3917 52.171 76.1274 51.6852 76.8762Z" fill="white"/>
<path d="M74.9675 145.231C75.4276 145.448 75.8931 145.656 76.3585 145.855C76.5244 145.924 76.6956 145.993 76.8614 146.067C77.0005 146.123 77.1396 146.183 77.2787 146.238C77.3215 146.257 77.359 146.271 77.3964 146.289C77.5141 146.335 77.6265 146.381 77.7442 146.428C77.8726 146.478 78.001 146.529 78.1241 146.58C78.2685 146.636 78.4076 146.691 78.5521 146.742C79.0871 146.95 79.6274 147.148 80.1678 147.338C82.1042 148.023 84.0832 148.615 86.0956 149.112C86.1865 149.135 86.2828 149.158 86.3791 149.181C87.2405 149.389 88.1072 149.578 88.9793 149.749C90.504 150.054 92.0431 150.304 93.5964 150.498H93.607C93.7943 150.521 93.9762 150.544 94.1635 150.567C94.1795 150.567 94.1956 150.572 94.217 150.572C94.217 150.576 94.2169 150.576 94.2223 150.572C94.4256 150.595 94.6342 150.618 94.8375 150.641C94.8514 150.645 94.8659 150.646 94.8804 150.646C95.073 150.669 95.2709 150.687 95.4635 150.706C95.6721 150.724 95.8808 150.743 96.0895 150.761C96.25 150.775 96.4105 150.789 96.571 150.803C96.5847 150.807 96.5993 150.808 96.6138 150.807C96.7582 150.817 96.9027 150.83 97.0471 150.84H97.0685C97.1916 150.849 97.32 150.858 97.443 150.867C98.9357 150.969 100.434 151.015 101.953 151.015C103.596 151.015 105.227 150.96 106.838 150.84H106.854C107.201 150.812 107.544 150.784 107.886 150.757C107.977 150.747 108.063 150.743 108.154 150.733C108.17 150.733 108.191 150.729 108.207 150.729C108.234 150.724 108.261 150.724 108.293 150.72C108.307 150.72 108.322 150.718 108.336 150.715C108.453 150.706 108.571 150.692 108.694 150.683L109.095 150.641C109.229 150.627 109.363 150.609 109.497 150.595C109.529 150.59 109.555 150.59 109.588 150.586C109.684 150.576 109.78 150.562 109.876 150.549C109.925 150.544 109.973 150.539 110.016 150.535C110.112 150.521 110.203 150.512 110.299 150.498H110.304C113.24 150.133 116.138 149.569 118.972 148.812C119.121 148.77 119.271 148.733 119.421 148.691C118.73 145.909 117.308 143.302 115.264 141.07C113.221 138.838 110.61 137.042 107.635 135.82C108.371 135.215 108.88 134.433 109.095 133.575C109.234 133.022 109.245 132.451 109.128 131.894C109.01 131.338 108.767 130.807 108.411 130.332C107.716 129.411 106.627 128.766 105.382 128.539L97.4537 127.107C96.1774 126.892 94.8544 127.121 93.7724 127.744C92.6904 128.367 91.9369 129.333 91.6757 130.433C91.5948 130.771 91.5589 131.115 91.5687 131.459C83.9342 135.848 78.4397 140.399 74.9675 145.231Z" fill="#0378BD"/>
<path d="M106.334 122.485C116.993 122.485 125.633 115.024 125.633 105.82C125.633 96.6154 116.993 89.1539 106.334 89.1539C95.6752 89.1539 87.0347 96.6154 87.0347 105.82C87.0347 115.024 95.6752 122.485 106.334 122.485Z" fill="#9E616A"/>
<path d="M103.591 121.594C98.7599 122.721 93.4332 121.223 89.6627 118.381C85.8921 115.54 83.5335 111.513 82.1745 107.354C81.1791 104.307 80.7072 100.926 82.2779 98.0661C83.8486 95.2063 88.0758 93.2769 91.3371 94.7215C89.3252 92.6973 90.3303 89.3495 92.68 87.6179C95.0297 85.8864 98.2563 85.3899 101.329 85.1185C105.789 84.7247 110.396 84.6806 114.639 85.9283C118.883 87.1759 122.739 89.9037 124.067 93.6011C125.424 94.1465 126.952 94.288 128.411 94.0035C129.871 93.7189 131.18 93.0243 132.133 92.0285C132.379 93.1722 132.182 94.3539 131.572 95.391C130.961 96.428 129.972 97.2624 128.758 97.7652L135.26 95.9448C136.378 97.9888 134.419 100.519 131.913 101.173C129.407 101.828 126.702 101.112 124.325 100.167C121.947 99.2209 119.642 98.0253 117.06 97.6565C114.477 97.2877 111.443 98.0043 110.248 100.016C109.623 101.069 109.59 102.303 109.227 103.445C108.863 104.587 107.943 105.77 106.576 105.864C105.713 105.923 104.867 105.526 104.006 105.607C103.477 105.697 102.991 105.918 102.606 106.243C102.22 106.568 101.953 106.983 101.837 107.437C101.622 108.348 101.62 109.288 101.829 110.2L103.481 121.102L103.591 121.594Z" fill="black"/>
</svg>
