<svg width="13" height="12" viewBox="0 0 13 12" fill="none" xmlns="http://www.w3.org/2000/svg">
<path d="M1.7 12C1.37 12 1.0876 11.8533 0.8528 11.5597C0.6176 11.2657 0.5 10.9125 0.5 10.5V1.5C0.5 1.0875 0.6176 0.7345 0.8528 0.441C1.0876 0.147 1.37 0 1.7 0H11.3C11.63 0 11.9126 0.147 12.1478 0.441C12.3826 0.7345 12.5 1.0875 12.5 1.5V10.5C12.5 10.9125 12.3826 11.2657 12.1478 11.5597C11.9126 11.8533 11.63 12 11.3 12H1.7ZM6.5 6.75L1.7 3V10.5H11.3V3L6.5 6.75ZM6.5 5.25L11.3 1.5H1.7L6.5 5.25ZM1.7 3V1.5V10.5V3Z" fill="white"/>
</svg>
