<svg width="310" height="310" viewBox="0 0 310 310" fill="none" xmlns="http://www.w3.org/2000/svg">
<g clip-path="url(#clip0_568_111)">
<path d="M29.8114 261.148L27.0812 250.412C22.2404 248.367 17.2878 246.595 12.2469 245.106L11.9023 250.095L10.5047 244.598C4.25307 242.817 0 242.033 0 242.033C0 242.033 5.74345 263.813 17.7939 280.464L31.8337 282.923L20.9266 284.491C22.4424 286.31 24.0714 288.031 25.8039 289.646C43.3319 305.867 62.855 313.31 69.4096 306.269C75.9643 299.228 67.0686 280.371 49.5406 264.151C44.1068 259.122 37.2808 255.087 30.4478 251.91L29.8114 261.148Z" fill="#465773"/>
<path d="M55.776 249.487L59.0048 238.89C55.9216 234.644 52.6007 230.575 49.0578 226.702L46.1761 230.796L47.8292 225.37C43.4005 220.625 40.1663 217.762 40.1663 217.762C40.1663 217.762 33.7923 239.367 35.4737 259.831L46.2177 269.172L36.0659 264.893C36.4212 267.231 36.9235 269.545 37.5701 271.82C44.165 294.739 57.0191 311.172 66.2803 308.523C75.5414 305.874 77.7031 285.146 71.1081 262.227C69.0638 255.122 65.3122 248.149 61.1099 241.909L55.776 249.487Z" fill="#465773"/>
<path d="M216.316 73.4392H214.613V26.9232C214.613 23.3876 213.915 19.8866 212.558 16.6202C211.201 13.3537 209.212 10.3857 206.704 7.88563C204.197 5.38558 201.22 3.40243 197.943 2.04941C194.667 0.696388 191.156 0 187.61 0H88.761C81.5991 0 74.7306 2.83655 69.6664 7.88563C64.6022 12.9347 61.7571 19.7827 61.7571 26.9232V282.118C61.7571 285.653 62.4556 289.154 63.8127 292.421C65.1697 295.687 67.1588 298.655 69.6664 301.155C72.1739 303.655 75.1508 305.639 78.427 306.992C81.7033 308.345 85.2148 309.041 88.761 309.041H187.61C194.771 309.041 201.64 306.204 206.704 301.155C211.768 296.106 214.613 289.258 214.613 282.118V106.55H216.316L216.316 73.4392Z" fill="#465773"/>
<path d="M188.699 7.00183H175.797C176.391 8.45233 176.617 10.0261 176.457 11.5844C176.296 13.1427 175.754 14.6378 174.877 15.938C174.001 17.2381 172.817 18.3033 171.431 19.0399C170.044 19.7764 168.497 20.1616 166.926 20.1616H110.296C108.725 20.1615 107.178 19.7762 105.792 19.0396C104.405 18.303 103.221 17.2377 102.345 15.9376C101.469 14.6375 100.926 13.1425 100.766 11.5842C100.606 10.0259 100.832 8.45226 101.426 7.00183H89.3744C84.026 7.00183 78.8966 9.12014 75.1147 12.8907C71.3328 16.6614 69.2082 21.7754 69.2082 27.1078V281.932C69.2082 287.264 71.3328 292.378 75.1147 296.149C78.8966 299.92 84.026 302.038 89.3744 302.038H188.699C194.047 302.038 199.177 299.92 202.959 296.149C206.741 292.378 208.865 287.264 208.865 281.932V27.1074C208.865 21.7751 206.74 16.6611 202.959 12.8906C199.177 9.12008 194.047 7.00183 188.699 7.00183Z" fill="white"/>
<path d="M126.38 108.511C126.38 106.73 126.85 104.98 127.744 103.437C128.637 101.895 129.923 100.614 131.47 99.7246C129.923 98.8339 128.168 98.3648 126.382 98.3646C124.596 98.3644 122.841 98.8331 121.294 99.7235C119.747 100.614 118.462 101.895 117.569 103.437C116.675 104.979 116.205 106.729 116.205 108.51C116.205 110.291 116.675 112.041 117.569 113.583C118.462 115.126 119.747 116.406 121.294 117.297C122.841 118.187 124.596 118.656 126.382 118.656C128.168 118.656 129.923 118.186 131.47 117.296C129.923 116.406 128.637 115.126 127.744 113.584C126.85 112.041 126.38 110.292 126.38 108.511Z" fill="#CCCCCC"/>
<path d="M139.173 108.511C139.172 106.73 139.643 104.98 140.536 103.437C141.43 101.895 142.715 100.614 144.263 99.7246C142.716 98.8339 140.961 98.3648 139.175 98.3646C137.388 98.3644 135.633 98.8331 134.086 99.7235C132.539 100.614 131.254 101.895 130.361 103.437C129.468 104.979 128.997 106.729 128.997 108.51C128.997 110.291 129.468 112.041 130.361 113.583C131.254 115.126 132.539 116.406 134.086 117.297C135.633 118.187 137.388 118.656 139.175 118.656C140.961 118.656 142.716 118.186 144.263 117.296C142.715 116.406 141.43 115.126 140.536 113.584C139.643 112.041 139.172 110.292 139.173 108.511Z" fill="#CCCCCC"/>
<path d="M151.675 118.656C157.295 118.656 161.851 114.114 161.851 108.51C161.851 102.907 157.295 98.3649 151.675 98.3649C146.055 98.3649 141.499 102.907 141.499 108.51C141.499 114.114 146.055 118.656 151.675 118.656Z" fill="#01589B"/>
<path d="M168.681 140.199H109.374C108.809 140.198 108.268 139.974 107.869 139.576C107.469 139.178 107.245 138.639 107.244 138.076V78.9452C107.245 78.3823 107.469 77.8426 107.869 77.4445C108.268 77.0465 108.809 76.8226 109.374 76.8219H168.681C169.246 76.8226 169.787 77.0465 170.186 77.4445C170.585 77.8426 170.81 78.3823 170.811 78.9452V138.076C170.81 138.639 170.585 139.178 170.186 139.576C169.787 139.974 169.246 140.198 168.681 140.199ZM109.374 77.6717C109.035 77.672 108.71 77.8064 108.471 78.0452C108.231 78.284 108.096 78.6079 108.096 78.9456V138.076C108.096 138.414 108.231 138.738 108.471 138.976C108.71 139.215 109.035 139.35 109.374 139.35H168.681C169.02 139.35 169.345 139.215 169.584 138.976C169.824 138.738 169.958 138.414 169.959 138.076V78.9456C169.958 78.6079 169.824 78.284 169.584 78.0452C169.345 77.8064 169.02 77.672 168.681 77.6717H109.374Z" fill="#CCCCCC"/>
<path d="M181.923 185.525H90.9638V186.375H181.923V185.525Z" fill="#CCCCCC"/>
<path d="M93.8364 180.222C95.4228 180.222 96.7089 178.94 96.7089 177.358C96.7089 175.776 95.4228 174.494 93.8364 174.494C92.2499 174.494 90.9638 175.776 90.9638 177.358C90.9638 178.94 92.2499 180.222 93.8364 180.222Z" fill="#01589B"/>
<path d="M181.923 214.163H90.9638V215.013H181.923V214.163Z" fill="#CCCCCC"/>
<path d="M93.8364 208.861C95.4228 208.861 96.7089 207.579 96.7089 205.997C96.7089 204.415 95.4228 203.133 93.8364 203.133C92.2499 203.133 90.9638 204.415 90.9638 205.997C90.9638 207.579 92.2499 208.861 93.8364 208.861Z" fill="#01589B"/>
<path d="M180.259 246.775H151.513C151.017 246.775 150.541 246.578 150.189 246.228C149.838 245.878 149.641 245.403 149.64 244.908V234.863C149.641 234.368 149.838 233.893 150.189 233.543C150.541 233.193 151.017 232.996 151.513 232.996H180.259C180.755 232.996 181.232 233.193 181.583 233.543C181.934 233.893 182.131 234.368 182.132 234.863V244.908C182.131 245.403 181.934 245.878 181.583 246.228C181.232 246.578 180.755 246.775 180.259 246.775Z" fill="#01589B"/>
<path d="M103.207 180.222C104.793 180.222 106.079 178.94 106.079 177.358C106.079 175.776 104.793 174.494 103.207 174.494C101.62 174.494 100.334 175.776 100.334 177.358C100.334 178.94 101.62 180.222 103.207 180.222Z" fill="#01589B"/>
<path d="M112.577 180.222C114.163 180.222 115.449 178.94 115.449 177.358C115.449 175.776 114.163 174.494 112.577 174.494C110.99 174.494 109.704 175.776 109.704 177.358C109.704 178.94 110.99 180.222 112.577 180.222Z" fill="#01589B"/>
<path d="M103.207 208.861C104.793 208.861 106.079 207.579 106.079 205.997C106.079 204.415 104.793 203.133 103.207 203.133C101.62 203.133 100.334 204.415 100.334 205.997C100.334 207.579 101.62 208.861 103.207 208.861Z" fill="#01589B"/>
<path d="M112.577 208.861C114.163 208.861 115.449 207.579 115.449 205.997C115.449 204.415 114.163 203.133 112.577 203.133C110.99 203.133 109.704 204.415 109.704 205.997C109.704 207.579 110.99 208.861 112.577 208.861Z" fill="#01589B"/>
<path d="M308.842 310H10.0219C9.38224 310 8.86407 309.773 8.86407 309.495C8.86407 309.216 9.38224 308.989 10.0219 308.989H308.842C309.481 308.989 310 309.215 310 309.495C310 309.774 309.481 310 308.842 310Z" fill="#3F3D56"/>
<path d="M235.014 203.102C235.218 203.195 235.415 203.305 235.601 203.429L254.268 195.485L254.935 190.583L262.393 190.537L261.953 201.782L237.314 208.278C237.262 208.449 237.2 208.616 237.128 208.779C236.772 209.537 236.199 210.173 235.481 210.608C234.764 211.042 233.934 211.255 233.095 211.22C232.256 211.186 231.446 210.905 230.767 210.413C230.088 209.921 229.57 209.24 229.278 208.455C228.986 207.671 228.933 206.818 229.125 206.003C229.318 205.188 229.747 204.449 230.36 203.877C230.973 203.305 231.742 202.926 232.57 202.788C233.398 202.651 234.248 202.76 235.014 203.102Z" fill="#FFB8B8"/>
<path d="M265.106 304.997H260.004L257.576 285.375L265.107 285.376L265.106 304.997Z" fill="#FFB8B8"/>
<path d="M256.359 303.544H266.199V309.721H250.163C250.163 308.083 250.816 306.511 251.978 305.353C253.14 304.195 254.716 303.544 256.359 303.544Z" fill="#2F2E41"/>
<path d="M284.95 303.56L279.872 304.059L275.527 284.768L283.021 284.032L284.95 303.56Z" fill="#FFB8B8"/>
<path d="M276.102 302.968L285.896 302.007L286.503 308.154L270.544 309.721C270.464 308.914 270.545 308.099 270.781 307.323C271.017 306.546 271.404 305.824 271.92 305.197C272.437 304.57 273.072 304.05 273.789 303.668C274.507 303.285 275.293 303.048 276.102 302.968Z" fill="#2F2E41"/>
<path d="M266.526 169.771C272.172 169.771 276.749 165.208 276.749 159.579C276.749 153.95 272.172 149.387 266.526 149.387C260.881 149.387 256.304 153.95 256.304 159.579C256.304 165.208 260.881 169.771 266.526 169.771Z" fill="#FFB8B8"/>
<path d="M258.863 301.029C258.425 301.03 258 300.877 257.664 300.596C257.328 300.316 257.102 299.926 257.026 299.495C254.385 284.878 245.752 237.084 245.546 235.76C245.541 235.73 245.539 235.699 245.539 235.668V232.105C245.539 231.975 245.58 231.848 245.655 231.743L246.796 230.151C246.85 230.074 246.921 230.011 247.004 229.966C247.086 229.921 247.178 229.895 247.272 229.891C253.774 229.587 275.067 228.697 276.096 229.978C277.129 231.266 276.764 235.168 276.68 235.937L276.684 236.017L286.25 297.013C286.325 297.499 286.205 297.995 285.916 298.394C285.626 298.793 285.191 299.062 284.704 299.143L278.729 300.125C278.284 300.196 277.828 300.106 277.445 299.87C277.061 299.635 276.774 299.27 276.638 298.841C274.79 292.954 268.593 273.149 266.446 265.485C266.432 265.436 266.401 265.394 266.359 265.367C266.317 265.339 266.266 265.328 266.216 265.335C266.166 265.342 266.12 265.367 266.088 265.405C266.055 265.443 266.037 265.492 266.037 265.542C266.145 272.848 266.404 291.487 266.494 297.924L266.503 298.617C266.507 299.087 266.334 299.541 266.019 299.889C265.704 300.238 265.269 300.455 264.8 300.5L259.038 301.022C258.98 301.027 258.921 301.029 258.863 301.029Z" fill="#013F7D"/>
<path d="M260.039 173.778C258.255 174.835 257.188 176.778 256.575 178.755C255.441 182.416 254.758 186.2 254.542 190.025L253.895 201.478L245.881 231.84C252.827 237.699 256.833 236.368 266.183 231.575C275.533 226.782 276.601 233.173 276.601 233.173L278.471 207.339L281.142 179.109C280.543 178.389 279.864 177.738 279.119 177.169C276.65 175.255 273.777 173.924 270.717 173.278C267.658 172.631 264.491 172.685 261.455 173.436L260.039 173.778Z" fill="#01589B"/>
<path d="M257.436 209.234C257.652 209.315 257.86 209.413 258.061 209.526L276.518 200.316L276.824 195.326L284.438 194.802L284.846 206.177L260.18 214.31C259.979 215.171 259.519 215.951 258.862 216.545C258.206 217.14 257.383 217.521 256.504 217.638C255.624 217.755 254.73 217.602 253.94 217.2C253.15 216.798 252.502 216.166 252.081 215.387C251.66 214.609 251.487 213.721 251.584 212.842C251.682 211.963 252.045 211.135 252.627 210.467C253.208 209.799 253.979 209.323 254.839 209.103C255.698 208.883 256.604 208.929 257.436 209.234Z" fill="#FFB8B8"/>
<path d="M281.009 179.238C285.55 180.836 286.35 198.149 286.35 198.149C281.007 195.219 274.596 200.013 274.596 200.013C274.596 200.013 273.26 195.485 271.658 189.626C271.174 187.978 271.116 186.235 271.489 184.558C271.863 182.882 272.656 181.327 273.795 180.038C273.795 180.038 276.467 177.639 281.009 179.238Z" fill="#01589B"/>
<path d="M275.692 162.274C274.419 161.258 272.681 163.105 272.681 163.105L271.662 153.962C271.662 153.962 265.294 154.723 261.218 153.708C257.143 152.694 256.506 157.391 256.506 157.391C256.296 155.494 256.253 153.582 256.379 151.677C256.633 149.391 259.945 147.105 265.803 145.581C271.662 144.058 274.718 150.661 274.718 150.661C278.795 152.692 276.966 163.29 275.692 162.274Z" fill="#2F2E41"/>
</g>
<defs>
<clipPath id="clip0_568_111">
<rect width="310" height="310" fill="white"/>
</clipPath>
</defs>
</svg>
